<svg width="193" height="89" viewBox="0 0 193 89" fill="none" xmlns="http://www.w3.org/2000/svg">
<g clip-path="url(#clip0_1_183)">
<path d="M193 74.6162V14.3838C193 6.43986 186.54 0 178.57 0L14.4299 0C6.46048 0 0 6.43986 0 14.3838V74.6162C0 82.5601 6.46048 89 14.4299 89L178.57 89C186.54 89 193 82.5601 193 74.6162Z" fill="white" fill-opacity="0.35"/>
<path d="M10.8224 21.5758L10.8224 67.4243C10.8224 73.3823 15.6678 78.2122 21.6449 78.2122L171.355 78.2122C177.332 78.2122 182.178 73.3823 182.178 67.4243V21.5758C182.178 15.6178 177.332 10.7879 171.355 10.7879L21.6449 10.7879C15.6678 10.7879 10.8224 15.6178 10.8224 21.5758Z" fill="white" fill-opacity="0.3"/>
<path d="M25.2523 38.5469C25.4068 38.1525 25.4041 37.7284 25.48 37.3205C26.3824 32.4256 30.4123 28.3086 35.3256 27.2739C36.2605 27.0768 37.2037 26.9741 38.1603 26.9768C41.5669 26.9849 44.9734 26.9498 48.3799 26.9876C51.716 27.0255 54.6076 28.233 57.0251 30.513C59.147 32.5147 60.418 34.9757 60.8788 37.8473C60.9818 38.4821 61.0223 39.1224 61.0223 39.7653C61.0196 43.1745 61.0468 46.5863 61.0088 49.9955C60.9708 53.3155 59.7595 56.1925 57.4695 58.6022C55.4586 60.7146 52.9843 61.9735 50.1008 62.4436C49.8271 62.4895 49.5398 62.4598 49.2769 62.5759C45.1441 62.5759 41.0113 62.5759 36.8785 62.5759C36.8595 62.4922 36.7863 62.5192 36.7348 62.5138C36.2632 62.4544 35.7944 62.3788 35.3283 62.2815C30.4177 61.2469 26.3879 57.1272 25.4854 52.2349C25.4095 51.8271 25.4122 51.4029 25.2577 51.0085C25.2523 46.8538 25.2523 42.7017 25.2523 38.5469ZM36.9246 33.9491C36.9246 34.1221 36.9246 34.2301 36.9246 34.3354C36.9246 38.4497 36.9218 42.5613 36.9327 46.6755C36.9327 46.9537 36.8568 47.0024 36.6021 46.9699C36.1061 46.9051 35.6102 46.9348 35.1224 47.0375C34.1196 47.2481 33.2145 47.6453 32.5586 48.4692C31.7022 49.5497 31.9163 51.0545 33.0301 51.8027C33.5017 52.1188 34.0356 52.2647 34.5885 52.3457C35.8351 52.5321 37.0302 52.4241 38.0736 51.6407C39.1766 50.8113 39.8324 49.7659 39.808 48.3206C39.7674 45.9893 39.7972 43.6553 39.7972 41.3213C39.7972 41.2267 39.7972 41.1322 39.7972 41.0377C39.9002 41.0538 39.9354 41.1079 39.9815 41.1565C41.1847 42.4019 42.3934 43.6472 43.5967 44.8925C43.8948 45.2005 43.8894 45.2032 44.1848 44.9088C45.4341 43.6634 46.6861 42.4207 47.9382 41.1782C48.0059 41.1106 48.0574 40.9971 48.1903 41.0025C48.1903 41.0755 48.1903 41.1349 48.1903 41.1943C48.1903 45.9893 48.193 50.7843 48.1849 55.5794C48.1849 55.8197 48.2309 55.8953 48.4856 55.89C49.2607 55.8711 50.0358 55.8765 50.8108 55.8873C51.0114 55.8899 51.0764 55.8495 51.0764 55.6334C51.071 48.5043 51.071 41.3753 51.0683 34.249C51.0683 34.1815 51.1171 34.0896 51.0087 34.0383C48.7052 36.3318 46.4016 38.6253 44.1035 40.9242C43.9599 41.0674 43.8894 41.0863 43.7404 40.9323C42.7701 39.9274 41.7918 38.9305 40.8161 37.9337C39.537 36.6208 38.2552 35.3106 36.9246 33.9491Z" fill="#141820"/>
<path d="M70.8021 41.7287C70.9241 41.7341 70.9186 41.6531 70.9431 41.6099C71.9322 39.8594 73.4255 38.9517 75.4472 38.9139C76.3361 38.8977 77.2114 38.9814 78.0515 39.2921C79.1762 39.7081 79.9811 40.4726 80.5041 41.5397C80.534 41.6018 80.561 41.6639 80.5936 41.726C80.6017 41.7396 80.6261 41.7477 80.6559 41.7666C81.0326 41.1372 81.4771 40.5617 82.0516 40.0971C83.0679 39.2786 84.2575 38.9625 85.534 38.922C86.534 38.8895 87.5151 38.9923 88.4364 39.4244C90.0191 40.1647 90.8407 41.4802 91.2303 43.1146C91.4233 43.925 91.5045 44.749 91.5045 45.581C91.5045 48.6363 91.5018 51.6915 91.5126 54.7468C91.5126 55.025 91.4342 55.0872 91.1681 55.0818C90.076 55.0656 88.984 55.0683 87.8891 55.0818C87.6262 55.0845 87.5421 55.0304 87.5421 54.7495C87.553 51.9022 87.5476 49.0549 87.5503 46.2077C87.5503 45.7025 87.5178 45.2001 87.4094 44.7057C87.0273 42.9822 85.8674 42.3338 84.244 42.5013C82.7291 42.658 81.7318 43.6467 81.3984 45.219C81.29 45.735 81.2549 46.2563 81.2522 46.7777C81.2494 49.4385 81.2467 52.0968 81.2576 54.7576C81.2576 55.0197 81.1952 55.0872 80.9323 55.0818C79.8294 55.0656 78.7264 55.0629 77.6234 55.0818C77.3361 55.0872 77.29 54.9927 77.29 54.736C77.2982 51.7213 77.2955 48.7038 77.2955 45.689C77.2955 45.2217 77.2494 44.7651 77.1247 44.3113C76.8266 43.2173 76.141 42.5851 74.9864 42.4905C73.4688 42.369 72.1897 42.8931 71.4797 44.26C71.1463 44.9029 71.0189 45.5999 71.0162 46.3211C71.0135 49.1279 71.0108 51.9374 71.0216 54.7441C71.0216 55.0197 70.9458 55.0845 70.6775 55.0818C69.5555 55.0656 68.4335 55.0683 67.3089 55.0818C67.0813 55.0845 67.0325 55.017 67.0325 54.7981C67.0379 49.7249 67.0379 44.6544 67.0352 39.5811C67.0352 39.3921 67.0568 39.3029 67.2844 39.3056C68.3766 39.3191 69.4688 39.3164 70.5636 39.3056C70.7723 39.3029 70.8021 39.3786 70.7994 39.5568C70.7886 40.1889 70.7967 40.8211 70.7967 41.4559C70.8021 41.5478 70.8021 41.6396 70.8021 41.7287Z" fill="#141820"/>
<path d="M164.72 52.9237C164.382 53.2748 164.11 53.6476 163.772 53.9664C162.742 54.9336 161.479 55.3495 160.1 55.4414C158.731 55.5333 157.403 55.3306 156.192 54.6526C154.699 53.8178 153.847 52.5698 153.812 50.8246C153.774 48.9769 154.523 47.5587 156.124 46.6105C157.208 45.9703 158.409 45.6812 159.639 45.4894C161.224 45.2408 162.821 45.2381 164.42 45.2571C164.666 45.2598 164.723 45.2004 164.728 44.9518C164.763 43.0122 163.498 42.1451 161.875 41.937C160.059 41.702 158.441 42.2018 157.053 43.3985C156.929 43.5066 156.872 43.5012 156.756 43.3824C156.203 42.815 155.637 42.2585 155.076 41.6994C154.812 41.4373 154.812 41.4373 155.094 41.1752C156.225 40.1217 157.571 39.495 159.078 39.1816C160.802 38.8223 162.525 38.7602 164.227 39.2545C166.704 39.9758 167.853 41.4994 168.192 44.055C168.276 44.6844 168.279 45.3165 168.279 45.9486C168.282 48.8851 168.276 51.8188 168.287 54.7552C168.287 55.0253 168.211 55.0794 167.956 55.0767C166.964 55.0605 165.97 55.0632 164.978 55.0767C164.763 55.0794 164.715 55.0146 164.717 54.8119C164.728 54.1825 164.72 53.5531 164.72 52.9237ZM163.249 48.0098C162.514 48.0287 161.78 48.0584 161.054 48.1611C160.127 48.2934 159.224 48.5096 158.447 49.0714C158.002 49.3902 157.788 49.8251 157.769 50.3573C157.737 51.2542 158.314 51.9917 159.289 52.3078C160.035 52.5482 160.796 52.532 161.555 52.4212C162.81 52.2375 163.761 51.6351 164.235 50.4141C164.52 49.6793 164.498 48.9067 164.496 48.1341C164.496 47.9909 164.409 48.0071 164.32 48.0071C163.962 48.0098 163.606 48.0098 163.249 48.0098Z" fill="#141820"/>
<path d="M106.434 52.5886C106.042 53.2505 105.57 53.8367 104.996 54.3445C104.236 55.0118 103.337 55.3386 102.345 55.4224C101.012 55.5332 99.7052 55.4386 98.5049 54.7714C97.1115 53.9988 96.3503 52.7777 96.0085 51.2622C95.857 50.5841 95.7947 49.898 95.7947 49.2037C95.7947 46.0107 95.7974 42.8176 95.7866 39.6219C95.7866 39.3544 95.857 39.2977 96.1149 39.3031C97.2179 39.3193 98.3209 39.3166 99.4239 39.3031C99.6809 39.3004 99.7675 39.3463 99.7675 39.6299C99.7539 42.299 99.7539 44.968 99.7648 47.6397C99.7675 48.4096 99.8108 49.1795 100.052 49.9223C100.638 51.7241 101.803 52.0294 103.253 51.8701C104.719 51.708 105.977 50.6247 106.199 48.6446C106.239 48.2906 106.25 47.9368 106.247 47.5803C106.245 44.9193 106.247 42.2611 106.242 39.6003C106.242 39.3815 106.277 39.3004 106.524 39.3031C107.657 39.3193 108.79 39.3193 109.923 39.3031C110.169 39.3004 110.204 39.3815 110.204 39.6003C110.198 44.6627 110.198 49.7252 110.204 54.7875C110.204 55.0253 110.136 55.0794 109.909 55.0767C108.836 55.0658 107.763 55.0658 106.689 55.0767C106.48 55.0794 106.423 55.0225 106.429 54.8146C106.442 54.0717 106.434 53.3315 106.434 52.5886Z" fill="#141820"/>
<path d="M118.229 51.9056C118.405 51.9056 118.51 51.9056 118.616 51.9056C121.358 51.9056 124.098 51.9084 126.841 51.9002C127.082 51.9002 127.164 51.9462 127.158 52.2028C127.142 53.0727 127.145 53.9426 127.155 54.8123C127.158 55.0204 127.099 55.0744 126.889 55.0744C122.518 55.069 118.149 55.069 113.779 55.0744C113.559 55.0744 113.524 54.9988 113.526 54.807C113.535 53.748 113.535 52.6918 113.526 51.6329C113.526 51.4708 113.58 51.3626 113.689 51.2465C116.412 48.3857 119.131 45.5196 121.849 42.6533C121.887 42.6129 121.946 42.5831 121.946 42.5075C121.852 42.4345 121.741 42.475 121.638 42.475C119.174 42.4723 116.711 42.467 114.247 42.4804C113.974 42.4831 113.928 42.4021 113.933 42.1536C113.949 41.2837 113.947 40.4139 113.933 39.5441C113.93 39.3441 113.993 39.3036 114.182 39.3036C118.294 39.309 122.407 39.309 126.519 39.3036C126.703 39.3036 126.77 39.336 126.768 39.5414C126.757 40.6003 126.76 41.6565 126.765 42.7155C126.765 42.8586 126.714 42.9505 126.622 43.0478C123.841 45.9788 121.063 48.9125 118.229 51.9056Z" fill="#141820"/>
<path d="M138.257 47.1592C138.316 44.0714 139.527 41.57 142.297 40.0652C145.181 38.4985 148.148 38.4498 151.064 40.0842C151.568 40.3678 151.997 40.7514 152.406 41.1566C152.52 41.2674 152.541 41.3349 152.417 41.4592C151.59 42.2722 150.769 43.0908 149.95 43.912C149.828 44.0363 149.766 44.0201 149.655 43.9039C149.07 43.315 148.425 42.7937 147.606 42.5856C146.368 42.2723 145.214 42.5505 144.189 43.2664C142.669 44.3281 142.072 45.8517 142.227 47.6454C142.384 49.4688 143.303 50.8277 145.023 51.557C146.536 52.1973 148.52 52.0379 149.75 50.5683C149.856 50.4414 149.907 50.4468 150.016 50.5656C150.807 51.4247 151.603 52.2783 152.409 53.1266C152.533 53.2562 152.468 53.3156 152.368 53.4048C151.36 54.3179 150.162 54.8771 148.853 55.1769C145.712 55.8928 142.891 55.2553 140.552 52.9995C139.084 51.5841 138.368 49.7849 138.259 47.7507C138.248 47.5562 138.257 47.3563 138.257 47.1592Z" fill="#141820"/>
<path d="M134.51 47.2C134.51 49.7204 134.505 52.2408 134.518 54.7612C134.521 55.0368 134.437 55.08 134.188 55.0746C133.066 55.0611 131.944 55.0638 130.822 55.0746C130.6 55.0773 130.54 55.0206 130.54 54.7964C130.546 49.7258 130.546 44.6526 130.54 39.582C130.54 39.3659 130.586 39.2984 130.817 39.3011C131.958 39.3146 133.101 39.3146 134.242 39.3011C134.467 39.2984 134.516 39.3578 134.516 39.5767C134.507 42.1186 134.51 44.6607 134.51 47.2Z" fill="#141820"/>
<path d="M135.058 33.9893C135.055 35.3374 133.963 36.3449 132.502 36.3449C131.093 36.3423 129.99 35.2968 129.987 33.9651C129.987 32.6846 131.109 31.5527 132.57 31.5986C133.995 31.6418 135.058 32.6251 135.058 33.9893Z" fill="#141820"/>
</g>
<defs>
<clipPath id="clip0_1_183">
<rect width="193" height="89" fill="white"/>
</clipPath>
</defs>
</svg>
