<svg width="106" height="37" fill="none" xmlns="http://www.w3.org/2000/svg"><path d="M16.37 22.97c-.14-.93-.84-1.38-1.53-1.84-.69-.46-1.4-.9-1.92-1.58-.73-.95-1-2-.5-3.14.72-1.62 2.94-2.08 4.38-.87.44.36.72.43 1.25.18 1.14-.54 2.35-.2 3.23.78a4.46 4.46 0 0 1 .96 4.49c-.8 2.6-2.5 4.4-5.15 5.15a6.65 6.65 0 0 1-5.19-.68 9.2 9.2 0 0 1-4.89-6.63c-.77-4.33 1.05-8.4 5.29-10.37 4.2-1.94 8.25-1.49 11.9 1.34a8.97 8.97 0 0 1 3.52 6.79c.29 4.8-1.93 8.25-6.03 10.6-1.38.8-2.91 1.17-4.45 1.56-.92.23-1.85.45-2.73.82-.3.12-.6.27-.85.47-.17.13-.3.28-.37.47-.07.15-.08.3.07.42.16.13.23-.04.32-.1a8.75 8.75 0 0 1 3.7-1.49c.83-.15 1.68-.2 2.51 0 .36.09.68.24.94.5.68.66.53 1.67-.32 2.19-.58.35-1.23.53-1.9.64-1.62.29-3.24.3-4.84-.16-.13-.04-.17 0-.2.12a.79.79 0 0 0 .04.52c.07.19.18.35.3.5.42.5.47.5 1 .2a5.03 5.03 0 0 1 3.7-.64c.55.13 1.01.43 1.29.94.32.58.15 1.06-.46 1.33a7.11 7.11 0 0 1-4.85-.3c-.14-.07-.22-.04-.31.05-.33.3-.5.66-.36 1.12a.4.4 0 0 1 .01.23c-.46-.48-.53-1-.18-1.6.09-.17.07-.23-.07-.33-.62-.5-1.11-1.09-1.11-1.94 0-.64 0-.63-.35-1.16-.42-.66-.3-1.31.08-1.93a4.05 4.05 0 0 1 1.78-1.4c1.15-.55 2.37-.92 3.57-1.3 1.95-.63 3.7-1.58 5.15-3.04a8.6 8.6 0 0 0 2.66-6.16 7.44 7.44 0 0 0-5.13-7.17c-2.8-.91-5.5-.71-7.94 1.05a7.9 7.9 0 0 0-3.18 5.38c-.58 3.6 1.8 6.74 4.24 7.97 1.47.75 2.97.73 4.4-.04a5.86 5.86 0 0 0 3.26-4.96c.08-1-.31-1.88-1-2.62a1.57 1.57 0 0 0-1.85-.38c-.16.07-.17.12-.1.28.28.6.42 1.21.2 1.87-.27.86-1.03 1.34-1.8 1.16a1.3 1.3 0 0 1-1.04-1.51c.1-.71.45-1.3.91-1.84.12-.14.13-.22 0-.35a2.14 2.14 0 0 0-1.77-.63c-1.19.16-1.83 1.19-1.52 2.4.2.72.64 1.28 1.19 1.77.43.4.89.76 1.3 1.17.46.43.8.94.77 1.61a.23.23 0 0 0-.03.1Zm-1.32 8.38c1.52.06 3.02-.03 4.46-.58a7.24 7.24 0 0 0-4.46.58Zm2.2-13.73c-.39.34-.66.73-.78 1.22-.05.18-.03.35.16.46.18.1.36.1.53-.02a.87.87 0 0 0 .3-.46c.15-.43-.01-.8-.21-1.2ZM15.5 34.6c1.08.25 2.1.23 3.13-.04-.37-.46-2.25-.37-3.13.04ZM54.54 15.77l.14-1.94c.17-3.42.2-6.85.19-10.28 0-.19.05-.31.2-.42.65-.48 1.36-.44 2.03-.12a2.37 2.37 0 0 1 1.46 2.23c.01 1.12-.17 2.21-.37 3.3a39.18 39.18 0 0 0-.5 5.35l-.29 7.2c-.08 2.25-.21 4.5-.2 6.74 0 1.74.08 3.47.53 5.16a4 4 0 0 0 .25.75c.1.2.07.34-.06.5-.4.57-1.01.75-1.65.47-.5-.22-.92-.56-1.24-1a1.3 1.3 0 0 1-.25-.75c-.01-.5-.07-1.01-.12-1.6-.43.46-.8.86-1.23 1.22a5.74 5.74 0 0 1-2.69 1.45 5.52 5.52 0 0 1-5.94-2.81 8.35 8.35 0 0 1-1-3.81c-.12-3.7.69-7.2 2.23-10.56.4-.86.92-1.66 1.64-2.3a3.75 3.75 0 0 1 4.54-.56c.81.43 1.45 1.08 2.13 1.67l.14.1c0 .02.01.01.06.01Zm-.07 6.14a7.2 7.2 0 0 0-.2-2.12 4.9 4.9 0 0 0-1.52-2.64 2.2 2.2 0 0 0-3.2.25c-.3.33-.54.7-.72 1.1-1.3 2.88-2 5.9-1.92 9.08.02.95.2 1.87.6 2.74.4.86 1 1.5 2.04 1.54.8.03 1.5-.25 2.08-.8.56-.5.96-1.13 1.26-1.81a18.45 18.45 0 0 0 1.58-7.34ZM101.98 32.64A9.38 9.38 0 0 1 98.71 34a7.75 7.75 0 0 1-7.1-1.91c-1.33-1.23-1.44-3-.37-4.47a9.37 9.37 0 0 1 3.3-2.63c1.13-.6 2.32-.9 3.6-.86 1.14.02 2.28-.01 3.41.01.34.01.38-.15.38-.4.01-.83-.02-1.66-.1-2.5-.08-.8-.2-1.58-.5-2.33-.5-1.27-1.41-1.91-2.67-1.88-.82.02-1.46.44-1.99 1.02A7.12 7.12 0 0 0 94.73 22c-.04.3-.02.61-.02.92-.02.52-.38.82-.89.74-.92-.15-1.83-1.2-1.72-2.12a11.01 11.01 0 0 1 2.46-5.88c.85-1.02 2-1.39 3.33-1.33 2.11.09 3.9.9 5.4 2.37a5.33 5.33 0 0 1 1.64 3.95c0 2.8.04 5.6.06 8.4l.05 4.64c0 .5-.2.8-.69.95a2.3 2.3 0 0 1-1.4-.03c-.5-.15-1.03-.83-.97-1.4.02-.17 0-.35 0-.58Zm-4.95-1.03a5.7 5.7 0 0 0 3.91-1.63c.54-.49.85-1.1.97-1.82.16-.99-.2-1.57-1.2-1.73a8.02 8.02 0 0 0-5.19.82c-.52.28-.96.68-1.2 1.24-.49 1.16-.26 2.2.98 2.76a3.9 3.9 0 0 0 1.73.36ZM86.03 32.64A9.58 9.58 0 0 1 82.76 34c-2.5.5-4.77 0-6.76-1.59-1.73-1.37-1.93-3.46-.45-5.11a9.4 9.4 0 0 1 5.4-3.1c.29-.05.59-.06.89-.06h3.67c.47 0 .47 0 .47-.49.01-.9-.03-1.8-.13-2.7a8.12 8.12 0 0 0-.55-2.24 2.64 2.64 0 0 0-4.35-.89c-1.36 1.35-2.24 2.95-2.18 4.93.02.88-.64 1.1-1.3.8a2.1 2.1 0 0 1-1.29-2.35c.3-1.92 1.01-3.68 2.17-5.24a3.97 3.97 0 0 1 3.56-1.62c1.99.08 3.7.81 5.17 2.13a5.43 5.43 0 0 1 1.9 4.2c0 2.86.04 5.74.06 8.61l.05 4.4c0 .56-.28.9-.83 1.02-.48.1-.96.09-1.4-.14-.53-.27-.8-.7-.82-1.3v-.62Zm-4.97-1.03a5.73 5.73 0 0 0 4-1.7c.42-.4.69-.88.83-1.44.32-1.22-.06-1.91-1.28-2.08a8.13 8.13 0 0 0-4.94.8c-.47.25-.87.56-1.15 1.02-.6 1-.65 2.4.86 3.06.54.23 1.1.35 1.68.34ZM66.63 34.14c-1.78-.03-3.08-.3-4.2-1.14a5.9 5.9 0 0 1-2.07-3.44c-.41-1.63-.44-3.3-.29-4.96a24.5 24.5 0 0 1 1.71-7.09c.34-.82.76-1.59 1.31-2.28a3.35 3.35 0 0 1 3.75-1.2c1.55.4 2.8 1.28 3.97 2.32a7.9 7.9 0 0 1 1.9 2.37c.7 1.4.58 2.83.05 4.24a7.93 7.93 0 0 1-7.04 4.84c-.43 0-.79-.18-1.16-.35-.37-.18-.74-.39-1.14-.5-.23-.08-.32-.02-.31.24.04 1 .13 2.01.6 2.94a2.4 2.4 0 0 0 2.3 1.43 5 5 0 0 0 3.55-1.51c.6-.58 1.1-1.24 1.62-1.9l.33-.38c.34-.41.75-.64 1.3-.44.54.19.8.59.88 1.13a3.21 3.21 0 0 1-1.01 2.83 9.48 9.48 0 0 1-6.05 2.85Zm-.46-8.96c.84 0 1.5-.25 2.13-.78a4.85 4.85 0 0 0 .5-6.67 2.25 2.25 0 0 0-1.05-.7c-1-.3-1.98.04-2.67 1.01a7.5 7.5 0 0 0-1.42 4.77 2.42 2.42 0 0 0 2.51 2.37ZM41.5 16.23c-.07 1.04-.33 1.96-.53 2.9a9.71 9.71 0 0 0-.23 2c.01 3.02.02 6.05 0 9.07 0 .9.18 1.79.39 2.66.12.5-.2.97-.7 1-1.39.07-2.65-.5-2.65-2.33-.02-5.42-.01-10.84-.01-16.26 0-.17.05-.25.2-.34 1.13-.6 2.16-.36 3.17.36.34.24.41.61.35.94ZM39.79 7c1.71 0 2.9 1.48 2.47 3.1-.2.76-.72 1.14-1.64 1.2-1.18.09-2.5-.92-2.68-2.09-.17-1.08.26-2.19 1.85-2.2ZM11.08.98c.2.01.41.12.54.36.59 1.15 1.1 2.32 1.44 3.56.04.16.05.32.07.47.03.14.04.27-.1.34-.15.07-.26-.03-.35-.12-.18-.18-.37-.36-.52-.57A19.98 19.98 0 0 1 10.4 2c-.24-.5.09-1.03.7-1.02ZM3.2 6.69c.15-.01.28.04.4.12 1.3.9 2.6 1.81 3.76 2.9.1.1.32.2.22.37-.11.19-.3.06-.46 0-1.5-.56-2.9-1.34-4.3-2.12-.28-.15-.38-.5-.28-.8a.7.7 0 0 1 .66-.47ZM22.82.97c.5 0 .86.5.64.95a18.82 18.82 0 0 1-2.4 3.71c-.07.1-.15.16-.27.1-.16-.07-.12-.21-.09-.34.2-.88.51-1.74.85-2.58.2-.49.42-.96.63-1.44.13-.26.34-.4.64-.4ZM29.97 6.55c.36 0 .57.15.7.43.12.31.04.6-.25.82l-1.04.7c-.85.53-1.7 1.1-2.61 1.52-.08.04-.17.08-.25.1-.09.04-.19.1-.27 0-.06-.1-.01-.2.04-.28.21-.3.46-.57.73-.83.78-.76 1.58-1.5 2.41-2.2.17-.15.34-.28.54-.26ZM30.01 17.28l-.2-.01c-.1 0-.19-.02-.23-.12-.04-.1 0-.19.07-.27.18-.19.39-.34.62-.46 1-.52 2.04-1 3.12-1.37.5-.17.9.12.86.6-.02.19-.1.36-.27.43-1.28.55-2.6.96-3.97 1.2ZM3.39 16.84c-.96-.05-1.76-.11-2.56-.23-.38-.06-.6-.24-.63-.52-.05-.4.23-.73.62-.7 1.18.13 2.34.36 3.47.7.15.05.28.14.42.21.1.06.18.13.15.26-.02.12-.11.15-.2.18-.48.16-.96.1-1.27.1Z" fill="#141820"/><path d="M15.05 31.35c1.44-.6 2.9-.93 4.46-.59-1.44.56-2.94.65-4.46.59ZM17.25 17.61c.2.4.36.78.21 1.21a.87.87 0 0 1-.3.46c-.18.13-.35.13-.53.02-.2-.1-.21-.28-.17-.46.13-.49.4-.88.79-1.23ZM15.5 34.6c.89-.4 2.77-.5 3.14-.04a6.39 6.39 0 0 1-3.13.04Z" fill="#141820"/></svg>