<svg width="193" height="89" viewBox="0 0 193 89" fill="none" xmlns="http://www.w3.org/2000/svg">
<g clip-path="url(#clip0_1_126)">
<path d="M193 74.6162V14.3838C193 6.43986 186.54 0 178.57 0L14.4299 0C6.46048 0 0 6.43986 0 14.3838V74.6162C0 82.5601 6.46048 89 14.4299 89L178.57 89C186.54 89 193 82.5601 193 74.6162Z" fill="white" fill-opacity="0.35"/>
<path d="M10.8224 21.5758L10.8224 67.4243C10.8224 73.3823 15.6678 78.2122 21.6448 78.2122L171.355 78.2122C177.332 78.2122 182.178 73.3823 182.178 67.4243V21.5758C182.178 15.6178 177.332 10.7879 171.355 10.7879L21.6448 10.7879C15.6678 10.7879 10.8224 15.6178 10.8224 21.5758Z" fill="white" fill-opacity="0.3"/>
<path d="M27.0561 44.2851C27.3303 43.385 27.8289 42.5898 28.2499 41.7588C28.6903 40.8918 28.6682 39.9668 28.6017 39.0336C28.574 38.6498 28.5684 38.266 28.5961 37.8849C28.6516 37.0732 29.0144 36.4243 29.6349 35.9052C30.0227 35.5795 30.4326 35.284 30.8509 34.9996C31.6375 34.464 32.197 33.7599 32.546 32.8792C32.7011 32.487 32.8895 32.106 33.0585 31.7167C33.5127 30.673 34.3354 30.1097 35.4406 29.9165C35.8201 29.8502 36.1968 29.7702 36.5763 29.7122C37.5402 29.5631 38.3573 29.1324 39.0636 28.4697C39.3434 28.2074 39.648 27.97 39.9389 27.7187C40.7727 27.0008 41.7255 26.8158 42.7809 27.0947C43.0855 27.1747 43.393 27.2411 43.6894 27.3404C44.7863 27.7076 45.8748 27.7021 46.9718 27.3432C47.462 27.1831 47.9634 27.0588 48.4785 26.9925C49.2015 26.9014 49.8413 27.0864 50.4286 27.4978C50.7776 27.7435 51.1155 28.0058 51.4146 28.3068C52.2872 29.1821 53.3426 29.6514 54.5613 29.8006C54.9214 29.8447 55.2759 29.9441 55.6305 30.0241C56.5113 30.2257 57.129 30.7531 57.5196 31.5511C57.7273 31.9762 57.9323 32.4042 58.104 32.846C58.4641 33.7571 59.0402 34.4833 59.8574 35.0328C60.2784 35.3143 60.6828 35.6153 61.0706 35.9467C61.7188 36.4989 62.0428 37.1919 62.0789 38.0341C62.1038 38.5697 62.065 39.1053 62.0317 39.6382C61.9708 40.566 62.1868 41.4163 62.6439 42.2171C62.8489 42.576 63.0372 42.946 63.2283 43.3104C63.7408 44.2851 63.7381 45.2625 63.2283 46.2372C63.0899 46.505 62.968 46.7866 62.8045 47.0379C62.1121 48.1064 61.9182 49.2716 62.0594 50.5141C62.1038 50.9062 62.0927 51.301 62.065 51.693C62.0012 52.6208 61.5083 53.2945 60.7908 53.8329C60.4584 54.0814 60.1288 54.3327 59.7853 54.5673C59.0153 55.0892 58.4724 55.785 58.129 56.6437C57.9711 57.0357 57.791 57.4195 57.622 57.8088C57.1623 58.8636 56.3396 59.4378 55.2205 59.6283C54.8521 59.6919 54.4837 59.7692 54.1154 59.8272C53.1431 59.979 52.3149 60.4069 51.6003 61.0807C51.3205 61.343 51.0158 61.5804 50.725 61.8317C49.8884 62.5468 48.9356 62.7318 47.883 62.4502C47.5812 62.3701 47.2709 62.3038 46.9745 62.2045C45.8776 61.84 44.7891 61.8455 43.6921 62.2045C43.213 62.3618 42.7199 62.4833 42.2158 62.5496C41.4734 62.6462 40.8115 62.4584 40.2104 62.025C39.8724 61.782 39.5428 61.528 39.2492 61.2326C38.3767 60.3573 37.3213 59.8907 36.1026 59.7416C35.7425 59.6974 35.388 59.5979 35.0334 59.5179C34.1664 59.3191 33.5487 58.7973 33.1609 58.0131C32.9421 57.5714 32.7344 57.1213 32.5516 56.663C32.1998 55.7822 31.6431 55.0781 30.8564 54.5425C30.4215 54.2471 29.9949 53.9378 29.5933 53.5954C28.9534 53.0515 28.6322 52.3667 28.5906 51.5356C28.5629 50.9476 28.6211 50.365 28.6433 49.7824C28.6682 49.0231 28.5352 48.2997 28.1723 47.6232C27.7624 46.8529 27.3192 46.0992 27.0589 45.257C27.0561 44.9312 27.0561 44.6081 27.0561 44.2851ZM32.7316 44.749C32.7316 51.6986 38.3795 57.3257 45.3652 57.3118C52.2262 57.2981 57.7717 51.8118 57.9323 45.0803C58.0985 38.0368 52.4561 32.3766 45.62 32.2303C38.4791 32.0756 32.7316 37.8242 32.7316 44.749Z" fill="#141820"/>
<path d="M93.9468 38.376C96.0716 34.781 102.231 34.6568 104.209 38.5361C104.328 38.5196 104.351 38.4064 104.4 38.3291C105.611 36.551 107.325 35.7253 109.453 35.6701C110.777 35.6371 112.04 35.8552 113.184 36.551C114.895 37.5946 115.807 39.1629 116.123 41.1039C116.222 41.7141 116.247 42.3271 116.245 42.9456C116.242 46.3306 116.239 49.7157 116.25 53.1008C116.25 53.3548 116.206 53.4432 115.926 53.4349C115.115 53.4128 114.303 53.4156 113.489 53.4321C113.248 53.4376 113.189 53.3713 113.192 53.1339C113.201 49.6577 113.198 46.1816 113.198 42.7054C113.198 42.0758 113.112 41.4574 112.893 40.8637C112.317 39.2954 110.83 38.4312 109.059 38.5528C107.065 38.688 105.566 39.9608 105.22 42.2912C105.137 42.8517 105.104 43.4149 105.104 43.9809C105.107 47.0237 105.101 50.0636 105.112 53.1063C105.112 53.3769 105.046 53.4404 104.78 53.4349C103.987 53.4156 103.195 53.4156 102.404 53.4349C102.132 53.4404 102.052 53.3769 102.052 53.0925C102.063 49.6053 102.06 46.1208 102.057 42.6335C102.057 41.7417 101.902 40.883 101.417 40.1183C100.647 38.9062 99.4843 38.4699 98.1071 38.5637C95.9246 38.7157 94.4149 40.1293 94.0686 42.2856C93.9856 42.8048 93.9441 43.3266 93.9441 43.8539C93.9468 46.9353 93.9414 50.0167 93.9522 53.1008C93.9522 53.3907 93.8638 53.4432 93.6005 53.4376C92.8087 53.4211 92.0159 53.4211 91.2241 53.4376C90.9607 53.4432 90.8886 53.3852 90.8913 53.1118C90.9003 47.9376 90.9003 42.7634 90.9003 37.5918C90.9003 37.1777 90.9111 36.7635 90.894 36.3493C90.8859 36.1395 90.9634 36.1036 91.1519 36.1064C92.0051 36.1147 92.8583 36.1147 93.7114 36.1064C93.8945 36.1036 93.9549 36.1451 93.9522 36.3384C93.9387 36.99 93.9468 37.6471 93.9468 38.376Z" fill="#141820"/>
<path d="M84.6751 38.9594C84.6751 38.0924 84.6807 37.2282 84.6724 36.3612C84.6696 36.1734 84.7084 36.0989 84.9189 36.1017C85.7721 36.1154 86.6252 36.1127 87.4783 36.1017C87.6833 36.0989 87.7276 36.1651 87.7276 36.3584C87.7221 41.9661 87.7221 47.5738 87.7276 53.1844C87.7276 53.3887 87.6639 53.4356 87.47 53.4328C86.628 53.4218 85.7859 53.4218 84.9411 53.4328C84.7306 53.4356 84.6668 53.3832 84.6696 53.1678C84.6835 52.3036 84.6751 51.4394 84.6751 50.4978C84.3455 50.9286 84.0657 51.3041 83.7389 51.6437C82.426 53.0049 80.8001 53.6897 78.9359 53.836C76.3821 54.0348 74.1245 53.339 72.2383 51.5747C69.8811 49.3686 68.9891 46.6295 69.3963 43.4792C69.834 40.0914 71.6815 37.645 74.8115 36.317C77.3764 35.2291 79.9829 35.3754 82.4316 36.8195C83.3345 37.3579 84.0298 38.1228 84.6751 38.9594ZM72.3518 44.7604C72.3518 48.2807 74.9916 50.9341 78.4788 50.959C82.0133 50.9838 84.6198 48.2089 84.689 44.915C84.7611 41.3697 82.0189 38.5589 78.4982 38.5783C75.0026 38.6004 72.3518 41.2483 72.3518 44.7604Z" fill="#141820"/>
<path d="M163.144 50.4837C162.665 51.1712 162.178 51.7345 161.599 52.2121C160.369 53.2282 158.936 53.7307 157.361 53.8439C154.818 54.0289 152.574 53.3276 150.696 51.5688C148.519 49.5311 147.635 47.0103 147.788 44.0725C148.007 39.8563 151.27 36.4382 154.876 35.8224C157.297 35.4083 159.588 35.7174 161.574 37.3078C162.169 37.7828 162.659 38.357 163.144 39.0611C163.144 38.1969 163.144 37.4238 163.144 36.6535C163.144 36.1096 163.144 36.1096 163.701 36.1096C164.432 36.1096 165.163 36.1206 165.894 36.104C166.135 36.0985 166.196 36.1648 166.196 36.4022C166.188 40.7565 166.191 45.1134 166.191 49.4676C166.191 50.7018 166.186 51.9332 166.196 53.1675C166.199 53.3801 166.141 53.4381 165.925 53.4353C165.092 53.4242 164.26 53.4214 163.427 53.4353C163.208 53.4381 163.133 53.3938 163.136 53.1564C163.153 52.3005 163.144 51.4418 163.144 50.4837ZM150.818 44.76C150.818 48.2831 153.455 50.9365 156.945 50.9586C160.48 50.9835 163.099 48.2085 163.155 44.887C163.21 41.3501 160.469 38.5614 156.967 38.5807C153.466 38.6 150.818 41.2451 150.818 44.76Z" fill="#141820"/>
<path d="M133.435 50.4924C132.926 51.2185 132.402 51.8149 131.773 52.3119C130.513 53.3058 129.058 53.7836 127.471 53.8526C123.561 54.0238 120.774 52.2484 118.976 48.8633C118.189 47.3806 117.973 45.7571 118.09 44.1032C118.314 40.8645 119.83 38.3409 122.663 36.7698C125.58 35.1546 128.574 35.1961 131.452 36.999C132.246 37.496 132.851 38.2084 133.435 39.0505C133.435 38.5479 133.435 38.1283 133.435 37.7113C133.435 37.2475 133.441 36.7809 133.432 36.317C133.43 36.1652 133.469 36.1044 133.634 36.1072C134.518 36.1154 135.401 36.1154 136.282 36.1072C136.448 36.1044 136.501 36.1652 136.482 36.317C136.476 36.3557 136.482 36.3971 136.482 36.4385C136.482 41.9938 136.479 47.5518 136.487 53.1071C136.487 53.3638 136.44 53.4494 136.161 53.4411C135.338 53.4191 134.516 53.4246 133.696 53.4384C133.474 53.4411 133.427 53.3722 133.43 53.1651C133.441 52.3036 133.435 51.4477 133.435 50.4924ZM133.435 44.7852C133.435 41.2483 130.795 38.5866 127.283 38.5839C123.768 38.5811 121.109 41.2427 121.109 44.7687C121.109 48.278 123.765 50.9535 127.25 50.9535C130.782 50.9535 133.435 48.3084 133.435 44.7852Z" fill="#141820"/>
<path d="M142.717 38.8097C143.146 38.1416 143.587 37.5203 144.194 37.0316C145.282 36.1481 146.562 35.8444 147.93 35.8029C148.085 35.7974 148.144 35.8416 148.144 36.0045C148.138 36.9239 148.133 37.8434 148.146 38.7628C148.149 39.0003 148.01 38.9616 147.872 38.9616C146.861 38.9561 145.908 39.1714 145.016 39.6656C143.709 40.389 143.036 41.5211 142.809 42.9596C142.74 43.3986 142.717 43.8431 142.717 44.2877C142.72 47.2282 142.714 50.1688 142.725 53.1093C142.725 53.3744 142.665 53.4489 142.393 53.4407C141.612 53.4213 140.829 53.4186 140.047 53.4407C139.751 53.4489 139.659 53.3882 139.659 53.0706C139.671 47.5844 139.668 42.0954 139.668 36.6091C139.668 36.5181 139.676 36.4269 139.665 36.3359C139.648 36.1729 139.695 36.1039 139.878 36.1066C140.751 36.115 141.623 36.1177 142.499 36.1066C142.714 36.1039 142.717 36.206 142.717 36.3635C142.714 37.1752 142.717 37.9924 142.717 38.8097Z" fill="#141820"/>
<path d="M32.7315 44.7493C32.7315 37.8274 38.4791 32.0761 45.6199 32.2279C52.456 32.3743 58.0984 38.0344 57.9322 45.0779C57.7743 51.8121 52.2262 57.2984 45.3651 57.3095C38.3794 57.3232 32.7315 51.6962 32.7315 44.7493ZM45.318 56.5943C51.8882 56.5943 57.2093 51.3096 57.2176 44.799C57.2259 38.2912 51.9713 33.1059 45.6477 32.943C38.9555 32.769 33.4434 38.1504 33.4462 44.7438C33.4489 51.3041 38.7477 56.5943 45.318 56.5943Z" fill="#141820"/>
<path d="M45.3185 56.5941C38.7483 56.5941 33.4494 51.3039 33.4466 44.7409C33.4439 38.1474 38.9588 32.7688 45.6481 32.94C51.9718 33.1029 57.2264 38.2883 57.218 44.7961C57.2097 51.3094 51.8888 56.5941 45.3185 56.5941ZM48.5925 39.6549C47.1079 37.9348 45.2576 37.4875 43.1773 37.794C41.2218 38.0812 39.8036 39.2105 38.7649 40.8201C37.7123 42.4492 37.4935 44.2522 37.776 46.138C38.1915 48.9018 40.6235 51.6905 43.8338 51.8285C45.349 51.8948 46.7561 51.5855 47.9333 50.5584C48.1521 50.3679 48.3515 50.1581 48.5925 49.9234C48.5925 50.3651 48.6036 50.7766 48.587 51.1852C48.5787 51.395 48.6341 51.4558 48.8501 51.453C49.8251 51.4419 50.8001 51.4392 51.7724 51.4558C52.0134 51.4586 52.0466 51.3813 52.0466 51.1686C52.0383 49.1089 52.0411 47.0463 52.0411 44.9866C52.0411 42.775 52.0411 40.5606 52.0411 38.349C52.0411 38.211 52.0771 38.0812 51.8389 38.0839C50.8251 38.0977 49.8085 38.095 48.7947 38.0866C48.6064 38.0839 48.5842 38.1613 48.587 38.3186C48.5981 38.7383 48.5925 39.158 48.5925 39.6549Z" fill="#141820"/>
<path d="M44.8554 40.9804C47.0796 40.9915 48.6032 42.5736 48.5921 44.8625C48.581 47.0107 46.98 48.5706 44.825 48.5651C42.6201 48.5568 41.0413 46.8698 41.1188 44.5891C41.1853 42.5294 42.7503 40.9693 44.8554 40.9804Z" fill="#141820"/>
</g>
<defs>
<clipPath id="clip0_1_126">
<rect width="193" height="89" fill="white"/>
</clipPath>
</defs>
</svg>
