<svg width="111" height="37" fill="none" xmlns="http://www.w3.org/2000/svg"><path d="m21.56 1-.71 2.3-3.59 11.68c-.07.22-.05.28.2.3l3.8.46c.15.02.24.07.31.2.96 1.57 1.9 3.15 2.88 4.71.11.19 0 .27-.1.38l-5.21 6.52-7 8.74c-.08.1-.14.24-.34.29l.38-1.23 4.02-12.92c.08-.23.05-.29-.2-.32-1.24-.13-2.48-.3-3.72-.44-.2-.02-.31-.09-.42-.26-.92-1.54-1.86-3.07-2.8-4.6-.1-.16-.1-.27.03-.43 4.07-5.05 8.13-10.1 12.19-15.17l.21-.24.07.03Z" fill="#141820"/><path d="m14.44 34.77 2.9-3.62c.1-.14.26-.12.4-.13a11.8 11.8 0 0 0 5.41-1.77A11.97 11.97 0 0 0 29 19.9a12.2 12.2 0 0 0-8.14-12.66c-.23-.08-.3-.15-.21-.39.33-1.05.66-2.1.96-3.16.08-.24.17-.27.4-.2 4.01 1.44 7.08 4 9.08 7.76a15.98 15.98 0 0 1-2.5 18.58 15.91 15.91 0 0 1-9.89 5c-1.37.17-2.75.15-4.13-.02l-.12-.04ZM18.94 2.79 17.7 4.33l-1.63 2.03c-.1.14-.22.2-.4.22A12.2 12.2 0 0 0 4.7 16.21c-.88 4.12.18 7.79 3.02 10.92 1.35 1.49 3 2.54 4.9 3.22.16.05.21.1.15.28l-1.02 3.3c-.06.21-.15.2-.32.14a16.12 16.12 0 0 1-9.08-7.8 15.24 15.24 0 0 1-1.76-9.13c.67-5.64 3.55-9.86 8.54-12.61A15.7 15.7 0 0 1 18.4 2.7l.54.08ZM104.97 27.04h-3.77c-.2 0-.2-.14-.23-.25-.4-1.25-.8-2.5-1.18-3.76-.06-.21-.16-.26-.37-.26H93.8c-.2 0-.3.05-.35.25l-1.19 3.78c-.05.18-.13.24-.32.24h-3.56l.48-1.4c1.85-5.3 3.7-10.58 5.53-15.88.08-.23.18-.31.43-.3h3.78c.2 0 .28.04.34.23l5.97 17.1c.03.08.04.16.06.25ZM96.6 12.8c-.03.06-.06.1-.07.15l-2.14 6.82c-.08.23.02.22.18.22h4.05c.23 0 .27-.03.2-.26-.67-2.09-1.32-4.18-1.98-6.28-.07-.21-.1-.44-.24-.65ZM63.5 16.93v-1.4l.03-1.13c.39-.07.77-.01 1.16-.03h.15c.17-.03.22.04.22.2-.02.35 0 .69 0 1.03v11.15a4.65 4.65 0 0 1-4.07 4.84 6.84 6.84 0 0 1-4.47-.55 4.06 4.06 0 0 1-2.2-2.59c-.05-.2-.04-.28.2-.27.42.02.84 0 1.26 0 .09 0 .17 0 .22.1.5 1.22 1.51 1.76 2.73 1.97.92.16 1.82.1 2.68-.27a3.09 3.09 0 0 0 2-2.9c.04-.88.01-1.77.01-2.73-.26.53-.53.97-.9 1.35a5 5 0 0 1-7.75-.83 7.79 7.79 0 0 1-1.09-4.52c.03-1.22.28-2.39.85-3.48a5.07 5.07 0 0 1 7.5-1.72c.31.24.59.51.83.82.23.3.42.62.65.96Zm-.08 3.84c0-1.03-.14-1.96-.55-2.83-.7-1.47-1.83-2.32-3.5-2.34-1.64-.01-2.8.8-3.45 2.27a6.74 6.74 0 0 0 0 5.6 3.52 3.52 0 0 0 3.3 2.25c1.53.04 2.69-.64 3.46-1.96.55-.95.73-1.99.74-3ZM110.46 18.26v8.49c0 .23-.04.3-.28.3-1.04-.02-2.08-.01-3.12 0-.21 0-.3-.03-.3-.28V9.7c0-.2.06-.24.26-.24h3.18c.24 0 .27.06.27.28v8.52ZM69.58 16.57c.36-.6.75-1.11 1.3-1.52 1.85-1.39 4.9-1.15 6.36.51.8.91 1.1 2 1.1 3.17.02 2.68 0 5.34.02 8.02 0 .23-.05.31-.3.3-.37-.03-.74-.02-1.11 0-.2 0-.25-.06-.25-.26v-3.58c0-1.44.04-2.87 0-4.31-.07-2.44-1.77-3.56-4-3.24-1.82.26-3 1.6-3.09 3.43-.09 1.91-.02 3.82-.03 5.74v1.94c0 .2-.03.29-.26.28-.4-.02-.8-.01-1.2 0-.14 0-.21-.04-.2-.19V9.8c0-.25.04-.36.32-.33.35.03.7.02 1.05 0 .25-.02.29.08.29.3V16.57ZM37.1 18.23V9.76c0-.24.05-.32.3-.3.39.02.77.02 1.15 0 .18 0 .24.04.24.23-.02.5-.01 1.02-.01 1.53v13.96c0 .27.07.33.33.33h8.11c.4 0 .4 0 .4.4 0 .26-.04.52 0 .78.04.32-.1.37-.38.36h-9.76c-.33 0-.38-.1-.38-.39v-8.43ZM81.75 20.2V16c0-.23-.05-.29-.28-.28-.46.02-.92 0-1.38.01-.18 0-.25-.03-.24-.23v-.92c0-.16.04-.2.2-.2h1.47c.2.01.23-.05.23-.23l-.01-2.69c0-.22.06-.26.26-.26.38.02.76.02 1.14 0 .2 0 .23.06.23.24l-.01 2.69c0 .21.06.26.26.25h2.02c.2 0 .25.05.24.24-.02.27-.02.54 0 .8.02.23-.04.32-.29.31-.67-.02-1.34 0-2-.01-.17 0-.23.03-.23.2v7.96c0 .25.03.5.1.74.17.66.59 1.02 1.27 1.06.34.02.68 0 1.02-.01.14 0 .2.03.2.18-.02.33-.01.67-.01 1.01 0 .1 0 .19-.15.2-.69.07-1.38.1-2.06-.03-1.15-.23-1.77-.93-1.93-2.14a7.9 7.9 0 0 1-.06-1V20.2ZM49.79 20.68v-6.04c0-.22.04-.29.27-.28.37.02.74.02 1.11 0 .21 0 .28.05.27.26V26.74c0 .24-.05.32-.3.3a9.58 9.58 0 0 0-1.09 0c-.2.02-.27-.05-.27-.26v-6.1ZM51.7 10.74a1.08 1.08 0 0 1-2.17.03c0-.6.48-1.1 1.08-1.1.6 0 1.1.47 1.1 1.07Z" fill="#141820"/></svg>