<svg width="193" height="89" viewBox="0 0 193 89" fill="none" xmlns="http://www.w3.org/2000/svg">
<g clip-path="url(#clip0_1_138)">
<path d="M193 74.6162V14.3838C193 6.43986 186.54 0 178.57 0L14.4299 0C6.46048 0 0 6.43986 0 14.3838V74.6162C0 82.5601 6.46048 89 14.4299 89L178.57 89C186.54 89 193 82.5601 193 74.6162Z" fill="white" fill-opacity="0.35"/>
<path d="M10.8224 21.5758L10.8224 67.4243C10.8224 73.3823 15.6678 78.2122 21.6449 78.2122L171.355 78.2122C177.332 78.2122 182.178 73.3823 182.178 67.4243V21.5758C182.178 15.6178 177.332 10.7879 171.355 10.7879L21.6449 10.7879C15.6678 10.7879 10.8224 15.6178 10.8224 21.5758Z" fill="white" fill-opacity="0.3"/>
<path d="M51.7072 26.9697C52.1 27.0994 52.5145 27.0832 52.9155 27.1426C55.9253 27.5881 58.6451 28.7196 61.0833 30.5289C61.2161 30.6288 61.2296 30.6855 61.1185 30.8179C60.043 32.0736 58.9757 33.332 57.9137 34.5985C57.7945 34.7416 57.7295 34.7389 57.5859 34.6362C55.9469 33.4643 54.1264 32.727 52.1325 32.4435C49.6862 32.0951 47.3157 32.403 45.0889 33.4778C41.0795 35.4167 38.6711 38.6005 37.9667 42.9833C37.1459 48.0953 39.8034 53.3448 44.4685 55.7266C48.9575 58.0193 53.3489 57.6925 57.548 54.9111C57.7322 54.7896 57.8026 54.8004 57.9408 54.9652C58.9892 56.2181 60.043 57.463 61.105 58.7025C61.235 58.8538 61.1944 58.9132 61.0563 59.0157C58.9459 60.5848 56.6025 61.6595 54.0235 62.1806C50.1332 62.9692 46.3459 62.5992 42.7673 60.8791C37.425 58.3082 34.1063 54.0983 32.8195 48.3194C32.6786 47.6821 32.5973 47.0366 32.5296 46.3885C32.5242 46.3372 32.554 46.2643 32.4673 46.2454C32.4673 45.2571 32.4673 44.2687 32.4673 43.2804C32.5512 43.2587 32.5215 43.1886 32.5296 43.1373C32.5865 42.716 32.6298 42.2947 32.7002 41.8761C33.326 38.1009 35.003 34.8523 37.7202 32.1573C40.5377 29.365 43.9375 27.6907 47.8819 27.129C48.226 27.0805 48.5836 27.1075 48.9114 26.9724C49.8406 26.9697 50.7752 26.9697 51.7072 26.9697Z" fill="#141820"/>
<path d="M152.547 48.3867C149.816 48.3867 147.085 48.3921 144.354 48.3813C144.067 48.3813 144.037 48.4434 144.102 48.708C144.839 51.7488 147.185 53.7525 150.325 54.0198C151.36 54.1089 152.384 54.0846 153.4 53.8497C154.957 53.4878 156.19 52.6588 157.076 51.3302C157.188 51.1654 157.261 51.1304 157.439 51.2356C158.295 51.7325 159.154 52.2186 160.021 52.6966C160.208 52.7993 160.222 52.8641 160.1 53.0422C158.425 55.4996 156.098 56.8958 153.151 57.2793C150.962 57.5628 148.798 57.4521 146.752 56.5799C143.214 55.0676 141.12 52.3834 140.543 48.5893C140.196 46.2993 140.391 44.0444 141.431 41.9408C143.005 38.7569 145.552 36.8289 149.101 36.2807C150.97 35.9917 152.823 36.07 154.614 36.7235C157.054 37.6147 158.761 39.3294 159.948 41.5817C161.026 43.6286 161.318 45.824 161.088 48.1059C161.067 48.3111 161.004 48.3975 160.766 48.3975C158.027 48.384 155.286 48.3867 152.547 48.3867ZM157.575 45.3028C157.534 45.0813 157.504 44.8897 157.461 44.6979C157.131 43.2262 156.5 41.9218 155.296 40.9525C153.275 39.324 150.978 39.0945 148.588 39.8345C146.099 40.6068 144.685 42.4106 144.116 44.9085C144.027 45.3001 144.035 45.3028 144.427 45.3028C148.687 45.3028 152.945 45.3028 157.204 45.3028C157.318 45.3028 157.437 45.3028 157.575 45.3028Z" fill="#141820"/>
<path d="M90.921 50.3931C91.8364 50.9223 92.7274 51.4355 93.6194 51.9485C93.9495 52.1403 93.9522 52.143 93.7439 52.4832C92.3 54.8326 90.2329 56.3907 87.5562 57.047C84.2918 57.8436 81.1791 57.4385 78.4158 55.424C75.853 53.558 74.4253 51.0169 74.1572 47.8492C73.9837 45.7834 74.2195 43.7743 75.1838 41.9218C76.8174 38.7812 79.3748 36.8315 82.921 36.2779C85.0937 35.9377 87.2122 36.1348 89.2304 37.0611C91.1429 37.9387 92.63 39.2808 93.6356 41.1387C93.752 41.3574 93.7628 41.4654 93.5139 41.6031C92.6706 42.0595 91.8418 42.5456 91.0157 43.029C90.8507 43.1262 90.7857 43.1127 90.6883 42.9371C89.5095 40.8281 87.6619 39.7615 85.2806 39.6102C82.5851 39.4375 80.4151 40.4501 78.8682 42.6672C77.7737 44.2334 77.4758 46.0049 77.744 47.8628C78.1178 50.4768 79.5428 52.3914 81.9891 53.3581C84.7768 54.4599 87.4181 54.0522 89.7073 52.0133C90.2085 51.5597 90.59 51.0034 90.921 50.3931Z" fill="#141820"/>
<path d="M129.369 50.3909C130.338 50.9499 131.291 51.5089 132.256 52.0571C132.43 52.157 132.332 52.2353 132.278 52.3326C131.382 53.9096 130.122 55.1221 128.551 56.024C126.532 57.1826 124.352 57.566 122.048 57.3445C118.345 56.9854 115.609 55.1329 113.794 51.9329C112.772 50.1317 112.467 48.1523 112.569 46.1027C112.697 43.567 113.58 41.3391 115.325 39.4677C117.3 37.3533 119.748 36.2758 122.642 36.1489C125.001 36.0462 127.185 36.5567 129.149 37.8907C130.419 38.7521 131.411 39.8593 132.118 41.223C132.205 41.3904 132.197 41.4634 132.023 41.5605C131.159 42.0412 130.303 42.5354 129.447 43.0323C129.301 43.116 129.239 43.1268 129.14 42.954C127.898 40.7396 125.952 39.6675 123.446 39.6C120.545 39.519 118.315 40.7504 116.947 43.2861C114.999 46.8966 116.292 52.0355 120.905 53.537C123.522 54.3876 125.982 53.9366 128.09 52.0679C128.621 51.5953 129.027 51.0228 129.369 50.3909Z" fill="#141820"/>
<path d="M68.221 44.7739C68.1451 49.8318 66.3003 54.1363 62.6565 57.6738C62.5076 57.8196 62.4344 57.8439 62.28 57.6576C61.237 56.4019 60.1805 55.1597 59.1184 53.9203C58.9966 53.7771 59.0101 53.715 59.1402 53.5827C61.9522 50.6959 63.1984 47.2583 62.7378 43.2508C62.41 40.3938 61.1557 37.9688 59.1293 35.9353C59.0155 35.8219 58.9939 35.768 59.1049 35.6356C60.1778 34.3799 61.2478 33.1215 62.3071 31.855C62.4398 31.6956 62.513 31.7146 62.6457 31.8442C65.753 34.847 67.5979 38.4737 68.1045 42.7647C68.1803 43.4264 68.2264 44.096 68.221 44.7739Z" fill="#141820"/>
<path d="M134.226 42.0922C134.226 37.299 134.229 32.5057 134.218 27.7125C134.218 27.4181 134.299 27.3641 134.576 27.3695C135.548 27.3885 136.521 27.3858 137.496 27.3695C137.753 27.3641 137.799 27.4451 137.799 27.6828C137.794 36.5888 137.794 45.4921 137.794 54.3982C137.794 55.138 137.788 55.8807 137.797 56.6206C137.799 56.8069 137.761 56.8744 137.556 56.8717C136.524 56.8609 135.491 56.8609 134.457 56.8717C134.245 56.8744 134.221 56.7961 134.223 56.6179C134.231 55.7672 134.226 54.9166 134.226 54.0687C134.226 50.0774 134.226 46.0835 134.226 42.0922Z" fill="#141820"/>
<path d="M106.642 39.8966C107.053 39.1891 107.503 38.5221 108.102 37.9659C109.19 36.9558 110.512 36.486 111.97 36.3401C112.236 36.3132 112.504 36.3105 112.772 36.2862C112.935 36.2726 112.973 36.3374 112.97 36.4887C112.965 37.585 112.965 38.6814 112.97 39.7779C112.97 39.9426 112.937 39.9803 112.753 39.9776C110.908 39.9587 109.269 40.4881 107.988 41.8625C107.158 42.751 106.839 43.8663 106.701 45.0464C106.644 45.5379 106.639 46.032 106.639 46.5262C106.642 49.8748 106.636 53.2259 106.647 56.5745C106.647 56.8257 106.582 56.8797 106.338 56.8743C105.346 56.858 104.352 56.8634 103.361 56.8715C103.166 56.8743 103.09 56.8392 103.09 56.6177C103.095 50.0476 103.095 43.4774 103.09 36.9073C103.09 36.7074 103.133 36.6372 103.35 36.6399C104.371 36.6507 105.395 36.6507 106.416 36.6399C106.606 36.6372 106.647 36.6967 106.644 36.8721C106.636 37.8795 106.642 38.8894 106.642 39.8966Z" fill="#141820"/>
<path d="M99.3436 46.7561C99.3436 50.0263 99.3409 53.2966 99.349 56.5695C99.349 56.8179 99.2813 56.8773 99.0378 56.8746C98.035 56.8611 97.033 56.8638 96.0301 56.8719C95.8407 56.8746 95.7812 56.8315 95.7812 56.6316C95.7866 50.0507 95.7866 43.4697 95.7812 36.8887C95.7812 36.6619 95.8651 36.6377 96.0581 36.6404C97.0411 36.6484 98.0241 36.6538 99.0054 36.6377C99.2705 36.6322 99.3517 36.6943 99.349 36.9724C99.3381 40.2346 99.3436 43.494 99.3436 46.7561Z" fill="#141820"/>
<path d="M95.186 30.6588C95.1778 29.3357 96.2096 28.3095 97.4993 28.2528C98.8295 28.1933 99.9595 29.3708 99.946 30.6184C99.9325 31.9443 98.9296 32.9813 97.6129 32.9894C96.2294 32.9975 95.1914 32.001 95.186 30.6588Z" fill="#141820"/>
</g>
<defs>
<clipPath id="clip0_1_138">
<rect width="193" height="89" fill="white"/>
</clipPath>
</defs>
</svg>
