<svg width="193" height="89" viewBox="0 0 193 89" fill="none" xmlns="http://www.w3.org/2000/svg">
<g clip-path="url(#clip0_1_164)">
<path d="M193 74.6162V14.3838C193 6.43986 186.54 0 178.57 0L14.4299 0C6.46048 0 0 6.43986 0 14.3838V74.6162C0 82.5601 6.46048 89 14.4299 89L178.57 89C186.54 89 193 82.5601 193 74.6162Z" fill="white" fill-opacity="0.35"/>
<path d="M10.8224 21.5758L10.8224 67.4243C10.8224 73.3823 15.6678 78.2122 21.6449 78.2122L171.355 78.2122C177.332 78.2122 182.178 73.3823 182.178 67.4243V21.5758C182.178 15.6178 177.332 10.7879 171.355 10.7879L21.6449 10.7879C15.6678 10.7879 10.8224 15.6178 10.8224 21.5758Z" fill="white" fill-opacity="0.3"/>
<path d="M60.3663 48.9718C60.2304 48.0403 59.5269 47.5908 58.845 47.1331C58.1523 46.6673 57.4351 46.2287 56.9217 45.5544C56.1937 44.6013 55.9138 43.5451 56.4191 42.4105C57.1417 40.7885 59.3639 40.3309 60.801 41.5359C61.2383 41.9014 61.5154 41.9691 62.0452 41.7227C63.1942 41.1838 64.4031 41.5142 65.2751 42.4999C66.4378 43.8132 66.7394 45.3459 66.2368 46.9896C65.4381 49.5892 63.7321 51.3818 61.0889 52.1373C59.2987 52.6491 57.5356 52.3701 55.903 51.4631C53.2651 49.9954 51.5374 47.8182 51.0104 44.8341C50.2443 40.4987 52.059 36.426 56.2995 34.4601C60.4912 32.5159 64.5471 32.9708 68.2091 35.7978C70.3958 37.4849 71.5585 39.8461 71.7216 42.5892C72.0068 47.3822 69.7928 50.8376 65.6935 53.188C64.3108 53.9814 62.7759 54.3632 61.2438 54.7477C60.3201 54.9806 59.3938 55.2027 58.5081 55.5655C58.2039 55.6901 57.916 55.8444 57.6551 56.0448C57.4949 56.1694 57.3672 56.3183 57.2884 56.5051C57.2232 56.6622 57.2069 56.8085 57.3618 56.9303C57.5247 57.0576 57.5899 56.8923 57.6796 56.8246C58.7853 56.015 60.043 55.5845 61.3769 55.3435C62.2135 55.1918 63.0557 55.1377 63.8924 55.3435C64.2455 55.4301 64.5689 55.5791 64.8296 55.8363C65.5088 56.5024 65.3648 57.5071 64.5145 58.027C63.9304 58.3844 63.2758 58.5577 62.6102 58.6741C60.9857 58.9558 59.3666 58.9667 57.7665 58.5063C57.6388 58.4684 57.5981 58.5117 57.5628 58.6336C57.5057 58.8204 57.5492 58.9883 57.609 59.1535C57.6769 59.3403 57.791 59.5028 57.9187 59.6572C58.3288 60.15 58.3805 60.1527 58.9184 59.8521C60.0729 59.2076 61.2954 58.9017 62.6129 59.2104C63.1644 59.3403 63.6207 59.6355 63.8979 60.1473C64.2157 60.7349 64.0526 61.206 63.4387 61.4795C62.8927 61.7232 62.3059 61.7693 61.7191 61.7775C60.6325 61.7909 59.5785 61.6312 58.587 61.1709C58.4483 61.1059 58.3723 61.1384 58.2773 61.2277C57.9458 61.5337 57.7883 61.8939 57.9187 62.3461C57.9404 62.4219 57.9567 62.4977 57.9322 62.5763C57.4677 62.1023 57.3998 61.5798 57.7475 60.9705C57.8371 60.8135 57.8181 60.7539 57.6796 60.6455C57.0602 60.1445 56.5685 59.5623 56.5685 58.7094C56.5685 58.0676 56.5631 58.0758 56.2208 57.545C55.797 56.8896 55.9138 56.2398 56.3023 55.6196C56.726 54.9481 57.3862 54.5609 58.0816 54.2224C59.228 53.6673 60.4451 53.3044 61.6512 52.9172C63.6017 52.289 65.3539 51.3358 66.8046 49.879C68.4997 48.1756 69.4369 46.1312 69.4586 43.7158C69.4859 40.4581 67.4375 37.5742 64.3298 36.5533C61.5289 35.6354 58.8259 35.8384 56.3865 37.604C54.5637 38.9255 53.5694 40.7695 53.2135 42.9819C52.6349 46.578 55.0174 49.7191 57.4514 50.954C58.9238 51.7013 60.4152 51.6796 61.855 50.9106C63.8272 49.8545 64.9383 48.1837 65.1095 45.9524C65.1882 44.9478 64.797 44.0705 64.1124 43.334C63.6126 42.795 62.9334 42.6705 62.2597 42.9549C62.1022 43.0225 62.0858 43.074 62.1593 43.2283C62.4444 43.8241 62.5775 44.4414 62.3657 45.0968C62.0858 45.9578 61.3334 46.4426 60.551 46.2585C59.8366 46.0905 59.4182 45.4732 59.5242 44.7474C59.6273 44.038 59.967 43.4422 60.4315 42.9115C60.5537 42.7733 60.5646 42.6922 60.4206 42.5622C59.918 42.1073 59.3449 41.8446 58.6576 41.934C57.4731 42.0883 56.8293 43.12 57.1417 44.3223C57.3318 45.0535 57.7828 45.6059 58.3288 46.0987C58.7635 46.4913 59.2172 46.8623 59.6383 47.2685C60.0919 47.7045 60.4315 48.2109 60.3962 48.8824C60.3826 48.9014 60.3718 48.9365 60.3663 48.9718ZM59.0515 57.35C60.5701 57.4096 62.0669 57.323 63.5066 56.7651C61.9527 56.4212 60.4858 56.7489 59.0515 57.35ZM61.2465 43.6155C60.8634 43.9622 60.589 44.3521 60.4668 44.8368C60.4206 45.0209 60.437 45.1915 60.6298 45.2999C60.8118 45.4028 60.9884 45.4055 61.1595 45.2809C61.3198 45.1645 61.4067 45.002 61.4665 44.8205C61.6051 44.39 61.4502 44.0136 61.2465 43.6155ZM59.5079 60.5995C60.5945 60.8459 61.6132 60.8323 62.6427 60.5562C62.2678 60.0958 60.3907 60.1933 59.5079 60.5995Z" fill="#141820"/>
<path d="M98.54 41.7709C98.586 41.1264 98.6455 40.4792 98.678 39.8293C98.8494 36.4065 98.8764 32.981 98.8656 29.5528C98.8656 29.3633 98.9197 29.2387 99.0694 29.1277C99.7215 28.6457 100.428 28.689 101.101 29.0086C102.022 29.4472 102.552 30.1973 102.561 31.2426C102.571 32.3555 102.386 33.4522 102.191 34.5435C101.873 36.3118 101.772 38.099 101.699 39.8889C101.601 42.2908 101.493 44.6927 101.403 47.0973C101.319 49.3422 101.189 51.587 101.2 53.8345C101.208 55.5676 101.281 57.298 101.726 58.9877C101.794 59.2449 101.865 59.5076 101.982 59.7432C102.08 59.9436 102.049 60.0817 101.925 60.2469C101.514 60.8075 100.906 60.9862 100.267 60.7072C99.7648 60.4879 99.3517 60.1521 99.0342 59.708C98.8737 59.486 98.7953 59.2476 98.7844 58.9634C98.7682 58.4543 98.7051 57.9452 98.6564 57.363C98.2298 57.8206 97.8528 58.2213 97.4316 58.5788C96.638 59.2558 95.7848 59.8461 94.7395 60.0303C92.6147 60.4039 90.1537 59.6647 88.8036 57.2194C88.1489 56.0334 87.8555 54.7499 87.8093 53.4094C87.6843 49.7131 88.4857 46.2037 90.0287 42.854C90.4277 41.9875 90.9526 41.1887 91.6696 40.5414C93.0089 39.3283 94.6061 39.1469 96.2114 39.9945C97.024 40.4223 97.6598 41.0668 98.3389 41.6599C98.3822 41.6977 98.4309 41.733 98.4769 41.7682C98.4769 41.7763 98.4913 41.7709 98.54 41.7709ZM98.4688 47.907C98.4913 47.1921 98.4498 46.4799 98.2622 45.7867C97.9908 44.7794 97.5777 43.8424 96.7498 43.1546C95.7172 42.2962 94.4239 42.4045 93.5437 43.4037C93.2533 43.7341 93.0089 44.097 92.8294 44.4923C91.528 47.3844 90.8381 50.4063 90.912 53.5827C90.9337 54.5305 91.1122 55.4512 91.5145 56.315C91.9194 57.1789 92.5119 57.8206 93.5491 57.8612C94.3562 57.8937 95.0462 57.6067 95.6333 57.0651C96.1898 56.5534 96.5866 55.9251 96.8932 55.2454C97.9502 52.9139 98.4174 50.4551 98.4688 47.907Z" fill="#141820"/>
<path d="M145.981 58.6439C144.935 59.3074 143.871 59.7759 142.707 60.0006C140.026 60.5233 137.62 59.9465 135.607 58.0861C134.278 56.8568 134.172 55.0858 135.24 53.6208C136.096 52.4456 137.28 51.6684 138.541 50.9915C139.665 50.3903 140.863 50.0952 142.148 50.1276C143.284 50.1547 144.419 50.1195 145.552 50.1439C145.889 50.152 145.93 49.9895 145.932 49.7404C145.943 48.909 145.913 48.0778 145.831 47.2492C145.753 46.4476 145.634 45.6596 145.334 44.9068C144.832 43.6422 143.919 42.9977 142.656 43.033C141.836 43.0546 141.198 43.4689 140.67 44.0484C139.638 45.1776 138.926 46.472 138.734 48.0101C138.695 48.3134 138.712 48.622 138.706 48.9307C138.695 49.448 138.334 49.7512 137.821 49.67C136.899 49.5238 135.989 48.4623 136.098 47.5497C136.356 45.3617 137.142 43.3714 138.56 41.6681C139.407 40.6499 140.564 40.2817 141.887 40.3358C144.003 40.4252 145.796 41.243 147.291 42.708C148.388 43.7857 148.926 45.1072 148.928 46.6561C148.934 49.4588 148.969 52.2642 148.994 55.0669C149.008 56.613 149.029 58.1566 149.043 59.7028C149.048 60.2038 148.834 60.5016 148.35 60.6506C147.88 60.7968 147.412 60.7724 146.942 60.6234C146.456 60.4691 145.919 59.7894 145.981 59.2262C145.997 59.0529 145.981 58.8742 145.981 58.6439ZM141.032 57.6123C142.553 57.5906 143.843 57.0084 144.943 55.9848C145.476 55.492 145.788 54.8746 145.905 54.157C146.065 53.1713 145.71 52.5919 144.715 52.4293C142.9 52.1342 141.156 52.3806 139.524 53.2525C138.997 53.5342 138.56 53.9295 138.323 54.4874C137.832 55.6544 138.063 56.6889 139.298 57.2548C139.85 57.5094 140.426 57.6231 141.032 57.6123Z" fill="#141820"/>
<path d="M130.033 58.6416C128.987 59.3078 127.919 59.7681 126.76 60.0037C124.263 60.5047 121.992 59.9983 120.004 58.4142C118.273 57.0358 118.075 54.9453 119.55 53.2989C120.992 51.6878 122.78 50.5992 124.945 50.2011C125.235 50.147 125.54 50.1388 125.836 50.1388C127.062 50.1334 128.286 50.1361 129.509 50.1361C129.976 50.1361 129.976 50.1361 129.982 49.6514C129.993 48.7497 129.952 47.8479 129.851 46.9543C129.765 46.188 129.604 45.4352 129.303 44.7149C128.544 42.9168 126.346 42.4402 124.953 43.8212C123.589 45.1725 122.709 46.7729 122.766 48.7497C122.794 49.6297 122.126 49.8517 121.471 49.5485C120.501 49.1017 120.017 48.2622 120.183 47.1953C120.479 45.2781 121.19 43.518 122.354 41.9609C123.228 40.7884 124.434 40.2793 125.906 40.3389C127.9 40.4175 129.612 41.1513 131.082 42.4673C132.329 43.5857 132.972 44.9748 132.978 46.6619C132.986 49.5349 133.018 52.408 133.043 55.2811C133.056 56.7461 133.079 58.2138 133.092 59.6788C133.098 60.242 132.812 60.5832 132.256 60.6969C131.778 60.7944 131.3 60.7863 130.859 60.5615C130.332 60.2934 130.055 59.852 130.039 59.259C130.028 59.0694 130.033 58.8826 130.033 58.6416ZM125.057 57.6126C126.624 57.591 127.945 56.9898 129.061 55.9175C129.476 55.5194 129.746 55.0266 129.892 54.4688C130.21 53.2475 129.827 52.5597 128.613 52.3944C126.893 52.1589 125.227 52.3891 123.668 53.196C123.203 53.437 122.797 53.7538 122.524 54.2088C121.925 55.2025 121.867 56.6188 123.38 57.2742C123.916 57.5043 124.472 57.6207 125.057 57.6126Z" fill="#141820"/>
<path d="M110.63 60.1362C108.846 60.1146 107.55 59.8465 106.436 58.9962C105.292 58.1243 104.697 56.9138 104.358 55.5598C103.95 53.927 103.918 52.2671 104.07 50.6044C104.293 48.1592 104.852 45.7898 105.784 43.5125C106.118 42.6947 106.537 41.9229 107.093 41.2297C108.08 40.0057 109.329 39.6293 110.842 40.0274C112.386 40.4335 113.643 41.3136 114.812 42.348C115.58 43.0304 116.256 43.7913 116.718 44.7229C117.413 46.1256 117.292 47.5499 116.764 48.9553C115.74 51.693 112.652 53.7943 109.718 53.797C109.291 53.797 108.93 53.6183 108.563 53.4477C108.186 53.2744 107.824 53.0632 107.423 52.944C107.186 52.8737 107.099 52.9305 107.11 53.1851C107.153 54.1978 107.24 55.2024 107.702 56.1285C108.172 57.0763 108.927 57.5502 110.011 57.5583C111.424 57.5665 112.56 56.9815 113.556 56.0473C114.168 55.4733 114.667 54.8071 115.18 54.1517C115.284 54.0191 115.4 53.8945 115.507 53.7672C115.851 53.3556 116.256 53.1255 116.814 53.3258C117.351 53.5181 117.609 53.9162 117.686 54.4605C117.84 55.5761 117.455 56.5347 116.68 57.2929C114.893 59.0396 112.746 60.0252 110.63 60.1362ZM110.171 51.1758C111.008 51.1758 111.671 50.9348 112.301 50.3986C114.205 48.7766 114.442 45.6111 112.796 43.7317C112.507 43.4041 112.168 43.1577 111.747 43.0304C110.741 42.7271 109.772 43.0684 109.077 44.0431C108.06 45.4648 107.588 47.0733 107.659 48.8117C107.71 50.1983 108.789 51.1758 110.171 51.1758Z" fill="#141820"/>
<path d="M85.4943 42.2284C85.4318 43.2656 85.171 44.1917 84.9727 45.1314C84.8341 45.792 84.7445 46.4555 84.7445 47.1325C84.7526 50.1545 84.7553 53.1765 84.7445 56.1986C84.7418 57.1084 84.9184 57.9857 85.1302 58.8631C85.2498 59.3559 84.9346 59.8325 84.424 59.8596C83.0412 59.9273 81.7807 59.3559 81.7753 57.5308C81.7617 52.1123 81.7699 46.6938 81.7672 41.2725C81.7672 41.102 81.8187 41.0153 81.9682 40.9341C83.0955 40.3275 84.1333 40.5658 85.1384 41.2942C85.478 41.5325 85.5513 41.9035 85.4943 42.2284Z" fill="#141820"/>
<path d="M83.7861 33.0081C85.503 33.0081 86.682 34.4811 86.2582 36.1032C86.0599 36.8614 85.541 37.2432 84.6228 37.3055C83.4356 37.3868 82.1208 36.3821 81.9388 35.215C81.7704 34.1346 82.1969 33.0216 83.7861 33.0081Z" fill="#141820"/>
<path d="M55.0832 26.9803C55.2815 26.9912 55.4935 27.1049 55.6184 27.3432C56.2052 28.4886 56.7268 29.6584 57.0609 30.904C57.1017 31.0557 57.1071 31.2155 57.1342 31.3725C57.156 31.5052 57.1669 31.6406 57.0256 31.7084C56.8843 31.7761 56.7729 31.6812 56.6833 31.5892C56.504 31.4051 56.3111 31.229 56.1644 31.0179C55.4908 30.062 54.8904 29.0627 54.3932 28.0039C54.1515 27.4975 54.4774 26.9722 55.0832 26.9803Z" fill="#141820"/>
<path d="M47.204 32.6891C47.3507 32.6783 47.4839 32.727 47.5952 32.8083C48.8937 33.7181 50.2004 34.6199 51.3604 35.7058C51.4663 35.8059 51.6755 35.9088 51.575 36.0822C51.4663 36.269 51.2707 36.139 51.1214 36.0822C49.6109 35.5243 48.2146 34.7363 46.8129 33.9618C46.5385 33.8102 46.4407 33.4555 46.5412 33.1522C46.6309 32.8814 46.9052 32.6918 47.204 32.6891Z" fill="#141820"/>
<path d="M66.8215 26.9696C67.3268 26.9696 67.6827 27.468 67.4571 27.9201C66.797 29.2416 66.0228 30.4954 65.0693 31.6327C64.9932 31.7221 64.9063 31.7871 64.7868 31.7328C64.6265 31.6598 64.6727 31.5163 64.6998 31.3944C64.9008 30.5062 65.2106 29.6505 65.5528 28.8083C65.7484 28.3236 65.9658 27.8471 66.183 27.3704C66.3053 27.1078 66.5227 26.9669 66.8215 26.9696Z" fill="#141820"/>
<path d="M73.9733 32.548C74.3265 32.548 74.5438 32.697 74.6606 32.9814C74.7856 33.29 74.7068 33.5879 74.4188 33.7964C74.082 34.0428 73.7343 34.273 73.3838 34.4951C72.5281 35.0312 71.6887 35.5998 70.7678 36.0223C70.6863 36.0602 70.6047 36.0981 70.5206 36.1279C70.4309 36.1604 70.3304 36.2281 70.2543 36.1143C70.1891 36.0196 70.2353 35.9248 70.2924 35.8409C70.5043 35.5402 70.7542 35.2695 71.0177 35.015C71.8001 34.2541 72.5988 33.5093 73.4327 32.8053C73.5985 32.6645 73.7696 32.5291 73.9733 32.548Z" fill="#141820"/>
<path d="M74.0111 43.2794C73.9405 43.2767 73.8725 43.2713 73.8019 43.2686C73.7069 43.2686 73.6226 43.2496 73.5819 43.1522C73.5384 43.0465 73.5792 42.9599 73.6498 42.884C73.8291 42.6945 74.0355 42.5428 74.2665 42.4237C75.277 41.8984 76.312 41.4245 77.3906 41.0481C77.8823 40.8775 78.2897 41.1672 78.249 41.6465C78.2326 41.8361 78.1539 42.0067 77.98 42.0798C76.7032 42.6322 75.383 43.0438 74.0111 43.2794Z" fill="#141820"/>
<path d="M47.3864 42.8406C46.4274 42.7891 45.626 42.7295 44.83 42.6076C44.4525 42.5508 44.2324 42.3721 44.1971 42.0851C44.1482 41.6952 44.4307 41.3566 44.8219 41.3972C45.9982 41.5218 47.1554 41.7466 48.2882 42.0904C48.4377 42.1365 48.5708 42.2313 48.712 42.3044C48.8153 42.3585 48.8886 42.4344 48.8642 42.5644C48.8424 42.6781 48.7474 42.7106 48.6522 42.7431C48.185 42.9029 47.7042 42.8406 47.3864 42.8406Z" fill="#141820"/>
<path d="M59.0513 57.3496C60.4857 56.7484 61.9526 56.4207 63.5065 56.7647C62.0667 57.3198 60.5699 57.4092 59.0513 57.3496Z" fill="#141820"/>
<path d="M61.2464 43.615C61.4501 44.0104 61.6077 44.3868 61.4637 44.82C61.4039 45.0015 61.317 45.1666 61.1567 45.2804C60.9829 45.405 60.809 45.405 60.627 45.2993C60.4369 45.191 60.4178 45.0177 60.464 44.8363C60.5889 44.3515 60.8634 43.9616 61.2464 43.615Z" fill="#141820"/>
<path d="M59.5075 60.5993C60.3904 60.1931 62.2676 60.0982 62.6424 60.5559C61.6128 60.8321 60.5942 60.843 59.5075 60.5993Z" fill="#141820"/>
</g>
<defs>
<clipPath id="clip0_1_164">
<rect width="193" height="89" fill="white"/>
</clipPath>
</defs>
</svg>
