<svg width="130" height="37" fill="none" xmlns="http://www.w3.org/2000/svg"><path d="M19.7.97c.4.13.81.11 1.22.17a17.9 17.9 0 0 1 8.16 3.39c.14.1.15.16.04.29a473.98 473.98 0 0 0-3.2 3.78c-.13.14-.2.14-.33.04a12.22 12.22 0 0 0-5.46-2.2 12 12 0 0 0-7.04 1.04c-4.01 1.94-6.42 5.12-7.12 9.5a12.28 12.28 0 0 0 6.5 12.75c4.49 2.29 8.88 1.96 13.08-.82.18-.12.25-.11.4.06 1.04 1.25 2.1 2.5 3.16 3.73.13.15.08.21-.05.32a17.49 17.49 0 0 1-7.04 3.16 17.4 17.4 0 0 1-11.25-1.3A17.52 17.52 0 0 1 .53 20.38c0-.04.02-.12-.06-.13v-2.97c.08-.02.05-.1.06-.14.06-.42.1-.85.17-1.26.63-3.78 2.3-7.03 5.02-9.72a17.61 17.61 0 0 1 10.16-5.03c.35-.05.7-.02 1.03-.16h2.8ZM120.55 22.39h-8.2c-.28 0-.31.05-.25.32a6.77 6.77 0 0 0 6.23 5.31 9.8 9.8 0 0 0 3.07-.17 5.85 5.85 0 0 0 3.68-2.52c.1-.16.18-.2.36-.1.86.5 1.71.99 2.58 1.47.19.1.2.16.08.34a9.53 9.53 0 0 1-6.95 4.24c-2.19.28-4.35.17-6.4-.7a9.83 9.83 0 0 1-6.2-8c-.35-2.28-.16-4.54.88-6.64a9.81 9.81 0 0 1 7.67-5.66c1.87-.29 3.72-.21 5.51.44 2.44.9 4.15 2.6 5.34 4.86a11.25 11.25 0 0 1 1.14 6.53c-.02.2-.09.29-.32.29-2.74-.02-5.48-.01-8.22-.01Zm5.03-3.09-.12-.6a6.38 6.38 0 0 0-2.16-3.75c-2.02-1.63-4.32-1.86-6.71-1.12-2.5.78-3.9 2.58-4.47 5.08-.1.39-.09.4.3.4h13.16ZM58.92 24.4l2.7 1.55c.33.19.33.2.12.53a9.8 9.8 0 0 1-6.18 4.57c-3.27.8-6.38.39-9.14-1.63a10.04 10.04 0 0 1-4.26-7.57c-.18-2.07.06-4.08 1.02-5.93a10.1 10.1 0 0 1 7.74-5.64 10.8 10.8 0 0 1 6.31.78 9.24 9.24 0 0 1 4.4 4.08c.12.22.13.33-.12.46-.84.46-1.67.95-2.5 1.43-.16.1-.22.08-.32-.1a6.28 6.28 0 0 0-5.4-3.32 6.84 6.84 0 0 0-6.42 3.06 7.02 7.02 0 0 0-1.13 5.2A6.57 6.57 0 0 0 50 27.35c2.79 1.1 5.43.7 7.72-1.35.5-.45.88-1 1.21-1.62ZM97.37 24.4l2.89 1.66c.17.1.07.18.02.27a9.79 9.79 0 0 1-3.73 3.7 10.68 10.68 0 0 1-6.5 1.31 10.16 10.16 0 0 1-8.26-5.4 10.49 10.49 0 0 1-1.22-5.84 10.17 10.17 0 0 1 2.75-6.63 10.24 10.24 0 0 1 7.32-3.32c2.36-.1 4.55.4 6.5 1.74a8.93 8.93 0 0 1 2.98 3.33c.08.17.08.24-.1.34-.86.48-1.72.98-2.57 1.47-.15.09-.21.1-.31-.08a6.31 6.31 0 0 0-5.7-3.35 6.7 6.7 0 0 0-6.5 3.69c-1.94 3.6-.65 8.75 3.97 10.25a7 7 0 0 0 7.18-1.47c.53-.47.94-1.05 1.28-1.68Z" fill="#141820"/><path d="M36.22 18.77a17.7 17.7 0 0 1-5.56 12.9c-.15.15-.23.17-.38-.01-1.04-1.26-2.1-2.5-3.16-3.74-.12-.14-.11-.2.02-.34a12.18 12.18 0 0 0 3.6-10.33 12.1 12.1 0 0 0-3.61-7.31c-.11-.12-.14-.17-.03-.3 1.08-1.26 2.15-2.52 3.2-3.78.14-.16.21-.15.35-.02a17.66 17.66 0 0 1 5.57 12.93ZM102.23 16.1l-.01-14.39c0-.3.08-.35.36-.34.97.02 1.94.02 2.92 0 .25 0 .3.08.3.31V30.62c0 .19-.04.25-.24.25h-3.1c-.21 0-.24-.07-.24-.25V16.09ZM74.64 13.9c.41-.71.86-1.38 1.46-1.93a6.42 6.42 0 0 1 3.87-1.63c.27-.03.53-.03.8-.05.16-.02.2.05.2.2v3.29c0 .16-.03.2-.22.2A6.1 6.1 0 0 0 76 15.86c-.83.9-1.15 2-1.29 3.19-.06.49-.06.98-.06 1.48v10.04c0 .26-.06.31-.3.3h-2.98c-.2 0-.27-.03-.27-.25V10.9c0-.2.04-.27.26-.27h3.07c.19 0 .23.06.22.23v3.03ZM67.34 20.76v9.8c0 .26-.06.32-.3.31h-3.01c-.19 0-.25-.04-.25-.24V10.9c0-.23.09-.25.28-.25H67c.26 0 .34.05.34.33v9.79ZM63.19 4.66a2.39 2.39 0 0 1 2.3-2.4 2.41 2.41 0 0 1 2.46 2.36 2.34 2.34 0 0 1-2.34 2.37 2.32 2.32 0 0 1-2.42-2.33Z" fill="#141820"/></svg>