<svg width="144" height="37" fill="none" xmlns="http://www.w3.org/2000/svg"><path d="M.25 12.55c.16-.4.15-.82.23-1.23A12.9 12.9 0 0 1 13.16.98c3.4 0 6.81-.03 10.22 0 3.34.05 6.23 1.25 8.65 3.53a12.55 12.55 0 0 1 4 9.26c-.01 3.4.02 6.82-.02 10.23a12.34 12.34 0 0 1-3.54 8.6 12.73 12.73 0 0 1-7.37 3.84c-.27.05-.56.02-.82.14h-12.4c-.02-.09-.1-.06-.15-.07A12.9 12.9 0 0 1 .48 26.23c-.07-.4-.07-.83-.22-1.22V12.55Zm11.67-4.6v.39l.01 12.34c0 .27-.07.32-.33.29-.5-.06-.99-.04-1.48.07-1 .2-1.9.6-2.56 1.43a2.27 2.27 0 0 0 .47 3.33c.47.32 1 .46 1.56.55 1.25.18 2.44.07 3.48-.7a3.88 3.88 0 0 0 1.74-3.33c-.04-2.33-.01-4.66-.01-7v-.28c.1.01.14.07.18.12l3.62 3.73c.3.31.29.31.58.02a2316 2316 0 0 1 3.76-3.73c.07-.07.12-.18.25-.18v14.58c0 .24.04.32.3.31.77-.02 1.55-.01 2.32 0 .2 0 .27-.04.27-.26l-.01-21.38c0-.07.05-.16-.06-.21l-6.9 6.88c-.15.15-.22.17-.37.01l-2.92-3-3.9-3.98ZM45.8 15.73c.12 0 .12-.08.14-.12a4.97 4.97 0 0 1 4.5-2.7c.9-.01 1.77.07 2.61.38a4.33 4.33 0 0 1 2.45 2.25l.1.19.06.04c.37-.63.82-1.2 1.4-1.67a5.64 5.64 0 0 1 3.47-1.18c1-.03 1.99.07 2.9.5a5.07 5.07 0 0 1 2.8 3.7c.2.8.27 1.63.27 2.46l.01 9.17c0 .27-.08.34-.34.33h-3.28c-.26 0-.35-.05-.35-.33l.01-8.54c0-.5-.03-1.01-.14-1.5-.38-1.73-1.54-2.38-3.17-2.2-1.51.15-2.5 1.14-2.84 2.7-.11.52-.15 1.05-.15 1.57v7.98c0 .26-.05.33-.32.32-1.1-.01-2.2-.02-3.3 0-.3 0-.34-.09-.34-.34v-9.05c0-.47-.04-.92-.17-1.38-.3-1.1-.98-1.72-2.13-1.82-1.52-.12-2.8.4-3.51 1.77a4.44 4.44 0 0 0-.46 2.06v8.42c0 .28-.07.34-.34.34H42.3c-.23 0-.28-.06-.28-.28V13.58c0-.19.03-.28.25-.27h3.28c.21 0 .24.07.24.25v2.17ZM139.72 26.92c-.34.35-.61.73-.95 1.05a5.72 5.72 0 0 1-3.67 1.47c-1.37.1-2.7-.1-3.9-.79a4.26 4.26 0 0 1-2.39-3.83 4.47 4.47 0 0 1 2.31-4.21 9.71 9.71 0 0 1 3.52-1.12c1.58-.25 3.18-.25 4.78-.23.25 0 .3-.06.3-.3.04-1.95-1.22-2.81-2.84-3.02a5.94 5.94 0 0 0-4.83 1.46c-.12.1-.18.1-.3-.02l-1.67-1.68c-.27-.26-.27-.26.01-.52a8.13 8.13 0 0 1 3.99-2c1.72-.36 3.44-.42 5.15.07 2.47.73 3.62 2.25 3.96 4.8.09.63.09 1.27.09 1.9v8.8c0 .28-.07.33-.32.33-1-.02-1.99-.02-2.98 0-.22 0-.26-.07-.26-.27v-1.89Zm-1.47-4.91c-.74.02-1.47.05-2.2.15-.92.13-1.83.35-2.6.91-.45.32-.66.76-.68 1.29-.03.9.54 1.63 1.52 1.95.75.24 1.5.22 2.27.11 1.25-.18 2.2-.78 2.68-2 .28-.74.26-1.51.26-2.29 0-.14-.1-.12-.18-.12h-1.07ZM81.43 26.59c-.39.66-.86 1.25-1.43 1.75-.76.67-1.66 1-2.66 1.08a6.56 6.56 0 0 1-3.84-.65c-1.39-.77-2.15-2-2.5-3.5a9.4 9.4 0 0 1-.2-2.07l-.01-9.58c0-.27.07-.32.32-.32 1.1.02 2.21.02 3.31 0 .26 0 .35.05.35.33-.02 2.67-.02 5.34 0 8.01 0 .77.04 1.54.28 2.28.59 1.8 1.75 2.1 3.2 1.95 1.47-.16 2.73-1.25 2.95-3.23.04-.35.05-.7.05-1.06V13.6c0-.22.03-.3.27-.3 1.14.02 2.27.02 3.4 0 .25 0 .28.08.28.3v15.19c0 .24-.06.29-.3.29-1.06-.01-2.14-.01-3.21 0-.21 0-.27-.06-.26-.27V26.6ZM93.23 25.9H101.84c.24 0 .32.05.32.3a87.3 87.3 0 0 0 0 2.61c0 .21-.06.26-.27.26H88.78c-.22 0-.26-.07-.25-.26v-3.18c0-.16.05-.27.16-.38l8.16-8.6c.04-.04.1-.07.1-.14-.1-.08-.2-.04-.31-.04l-7.4.01c-.27 0-.31-.08-.3-.33v-2.6c-.01-.2.05-.25.24-.25h12.34c.18 0 .25.04.25.24v3.18c0 .14-.06.23-.15.33l-8.4 8.86ZM113.26 21.16c.06-3.09 1.27-5.59 4.04-7.1a8.6 8.6 0 0 1 8.76.02c.5.29.94.67 1.35 1.08.11.1.13.17 0 .3l-2.46 2.45c-.12.13-.18.11-.3 0a4.51 4.51 0 0 0-2.04-1.32 4.05 4.05 0 0 0-3.42.68 4.54 4.54 0 0 0-1.96 4.38 4.4 4.4 0 0 0 2.8 3.9c1.5.65 3.49.49 4.72-.98.1-.13.16-.12.27 0l2.39 2.56c.12.13.06.19-.04.27-1.01.92-2.2 1.48-3.52 1.78-3.14.71-5.96.08-8.3-2.18a7.6 7.6 0 0 1-2.3-5.25v-.6ZM109.51 21.2v7.56c.01.28-.07.32-.32.31h-3.37c-.22 0-.28-.05-.28-.27V13.58c0-.21.05-.28.28-.28h3.42c.23 0 .28.06.28.28l-.01 7.62ZM110.06 7.99c0 1.35-1.1 2.35-2.56 2.35-1.4 0-2.51-1.04-2.51-2.37a2.45 2.45 0 0 1 2.58-2.37c1.43.04 2.49 1.03 2.49 2.39Z" fill="#141820"/></svg>