<svg width="193" height="89" viewBox="0 0 193 89" fill="none" xmlns="http://www.w3.org/2000/svg">
<g clip-path="url(#clip0_1_150)">
<path d="M193 74.6162V14.3838C193 6.43986 186.54 0 178.57 0L14.4299 0C6.46048 0 0 6.43986 0 14.3838V74.6162C0 82.5601 6.46048 89 14.4299 89L178.57 89C186.54 89 193 82.5601 193 74.6162Z" fill="white" fill-opacity="0.35"/>
<path d="M10.8224 21.5758L10.8224 67.4243C10.8224 73.3823 15.6678 78.2122 21.6448 78.2122L171.355 78.2122C177.332 78.2122 182.178 73.3823 182.178 67.4243V21.5758C182.178 15.6178 177.332 10.7879 171.355 10.7879L21.6448 10.7879C15.6678 10.7879 10.8224 15.6178 10.8224 21.5758Z" fill="white" fill-opacity="0.3"/>
<path d="M62.5552 26.997C62.3203 27.765 62.0854 28.5303 61.8503 29.2983C60.6564 33.1928 59.4625 37.0873 58.2604 40.9818C58.1947 41.197 58.2057 41.2569 58.4543 41.2842C59.7275 41.4258 60.9952 41.5919 62.2657 41.7417C62.4105 41.758 62.4952 41.8124 62.5716 41.935C63.5252 43.5092 64.4787 45.086 65.4459 46.652C65.5606 46.8372 65.4459 46.9216 65.3585 47.0306C63.6181 49.2039 61.8777 51.3772 60.1373 53.5505C57.804 56.4618 55.4735 59.3759 53.1376 62.2873C53.0556 62.3907 52.9982 62.5296 52.8042 62.5759C52.9354 62.1484 53.0556 61.7507 53.1812 61.3531C54.52 57.0446 55.856 52.7389 57.203 48.4331C57.2768 48.2016 57.2522 48.1417 57.0035 48.1145C55.7604 47.9756 54.5227 47.8122 53.2823 47.6679C53.0856 47.646 52.9654 47.5834 52.8589 47.4064C51.9354 45.8704 51.0009 44.3425 50.0611 42.8147C49.9573 42.6459 49.9627 42.5423 50.0911 42.3789C54.1594 37.327 58.2193 32.2722 62.2794 27.2148C62.3476 27.1304 62.4187 27.0514 62.4897 26.9697C62.5143 26.9833 62.5334 26.9888 62.5552 26.997Z" fill="#141820"/>
<path d="M55.4385 60.7731C56.4193 59.5476 57.3783 58.352 58.3346 57.1509C58.4493 57.0066 58.6023 57.0339 58.7444 57.023C60.6897 56.8596 62.5093 56.2958 64.1541 55.2527C67.5993 53.0712 69.602 49.9638 69.9927 45.9032C70.5309 40.3201 67.1621 35.1184 61.8454 33.2391C61.624 33.1602 61.5558 33.0921 61.635 32.8497C61.9738 31.8012 62.2962 30.7445 62.6049 29.6879C62.676 29.4482 62.7662 29.4155 62.9929 29.4972C67.0146 30.9297 70.0801 33.4952 72.0828 37.2481C75.3477 43.3731 74.3505 50.7563 69.5802 55.8273C66.9026 58.6761 63.5912 60.3429 59.6924 60.8331C58.3154 61.0046 56.9385 60.9801 55.5641 60.8112C55.5369 60.8112 55.5122 60.7977 55.4385 60.7731Z" fill="#141820"/>
<path d="M59.9359 28.7884C59.5042 29.3277 59.1026 29.8315 58.7009 30.3326C58.1572 31.0108 57.6108 31.6834 57.0725 32.3643C56.966 32.5005 56.8485 32.5659 56.6763 32.5822C51.2312 33.0942 46.8461 36.8744 45.704 42.2068C44.8215 46.3273 45.8789 49.9958 48.7176 53.1278C50.0673 54.6176 51.723 55.6742 53.6218 56.3469C53.7803 56.4041 53.8349 56.4504 53.7749 56.6329C53.4224 57.7304 53.0809 58.8307 52.7502 59.9337C52.6875 60.1434 52.5973 60.127 52.4333 60.0671C48.4034 58.621 45.3598 56.0283 43.3489 52.2618C41.8244 49.4076 41.2178 46.3437 41.5948 43.141C42.256 37.4953 45.1412 33.2767 50.1274 30.526C53.0044 28.9383 56.1272 28.4017 59.3976 28.7122C59.5561 28.7312 59.7146 28.7585 59.9359 28.7884Z" fill="#141820"/>
<path d="M145.968 53.0383C144.698 53.0383 143.449 53.0356 142.198 53.041C141.996 53.041 142.009 52.8967 141.974 52.7878C141.575 51.5377 141.173 50.2904 140.793 49.0348C140.728 48.817 140.632 48.7652 140.419 48.7652C138.548 48.7734 136.676 48.7734 134.801 48.7652C134.597 48.7652 134.509 48.817 134.447 49.0158C134.058 50.2795 133.652 51.5377 133.264 52.7986C133.209 52.9811 133.132 53.041 132.935 53.041C131.767 53.0301 130.594 53.0356 129.381 53.0356C129.548 52.5508 129.703 52.0933 129.862 51.6357C131.706 46.3441 133.551 41.0552 135.387 35.7636C135.469 35.5293 135.567 35.4504 135.821 35.4531C137.083 35.4694 138.343 35.4639 139.605 35.4558C139.791 35.4558 139.878 35.4994 139.944 35.6873C141.93 41.3902 143.922 47.093 145.913 52.7932C145.935 52.8695 145.946 52.9484 145.968 53.0383ZM137.613 38.8111C137.58 38.8737 137.553 38.9145 137.54 38.9608C136.826 41.2349 136.119 43.5117 135.398 45.7831C135.324 46.0118 135.419 46.0009 135.583 46.0009C136.933 45.9982 138.285 45.9955 139.635 46.0037C139.856 46.0037 139.9 45.971 139.827 45.7422C139.159 43.6506 138.506 41.5563 137.848 39.4619C137.779 39.2496 137.744 39.0235 137.613 38.8111Z" fill="#141820"/>
<path d="M104.509 42.9267C104.509 42.461 104.506 41.998 104.509 41.5323C104.511 41.1564 104.522 40.7779 104.53 40.4021C104.915 40.334 105.304 40.3884 105.689 40.3721C105.738 40.3694 105.79 40.3776 105.839 40.3694C106.008 40.3448 106.061 40.4103 106.055 40.5791C106.042 40.9168 106.053 41.2572 106.053 41.595C106.053 45.3124 106.053 49.0299 106.053 52.7474C106.053 55.3129 104.533 57.1321 101.987 57.587C100.443 57.862 98.9351 57.7722 97.5201 57.0395C96.4405 56.4786 95.6514 55.6588 95.3231 54.4523C95.2681 54.2535 95.2771 54.1717 95.5197 54.1826C95.9409 54.2018 96.3612 54.1881 96.7823 54.1881C96.8698 54.1881 96.9519 54.1717 97.0006 54.2862C97.5065 55.4953 98.5112 56.04 99.7332 56.2525C100.645 56.4104 101.55 56.3424 102.41 55.9802C103.689 55.4409 104.35 54.4495 104.413 53.0851C104.454 52.2 104.421 51.3122 104.421 50.3454C104.156 50.8764 103.885 51.3203 103.522 51.6989C101.323 53.9703 97.4867 53.559 95.7713 50.8655C94.8938 49.4875 94.6404 47.9515 94.681 46.3501C94.7134 45.1327 94.9569 43.9643 95.5251 42.8749C97.162 39.7376 101.026 39.5196 103.039 41.1456C103.342 41.3907 103.618 41.663 103.858 41.9735C104.088 42.2704 104.28 42.5945 104.509 42.9267ZM104.424 46.7668C104.421 45.7372 104.285 44.8059 103.869 43.9371C103.173 42.4746 102.036 41.6167 100.374 41.6031C98.7277 41.5895 97.5661 42.4065 96.9239 43.8744C96.1159 45.721 96.1159 47.6165 96.9266 49.4657C97.5417 50.8655 98.6591 51.6662 100.217 51.7153C101.749 51.7616 102.911 51.0753 103.678 49.7598C104.227 48.8148 104.41 47.7717 104.424 46.7668Z" fill="#141820"/>
<path d="M151.464 44.258C151.464 47.0876 151.461 49.9173 151.469 52.7496C151.469 52.9784 151.419 53.0492 151.179 53.0465C150.138 53.0329 149.097 53.0356 148.056 53.0438C147.849 53.0465 147.764 53.0165 147.764 52.7742C147.772 47.0849 147.772 41.3929 147.767 35.7036C147.767 35.5048 147.824 35.4586 148.018 35.4586C149.078 35.4667 150.14 35.4721 151.201 35.4558C151.436 35.4531 151.472 35.5239 151.472 35.7363C151.464 38.5796 151.464 41.4174 151.464 44.258Z" fill="#141820"/>
<path d="M110.579 42.5718C110.937 41.9781 111.333 41.4552 111.877 41.0467C113.732 39.6604 116.789 39.9029 118.24 41.5641C119.032 42.471 119.342 43.5577 119.347 44.7342C119.358 47.406 119.347 50.0749 119.355 52.7466C119.355 52.9754 119.306 53.0598 119.06 53.0462C118.691 53.0244 118.32 53.0299 117.948 53.0434C117.748 53.0516 117.697 52.989 117.699 52.7929C117.707 51.5973 117.705 50.4017 117.705 49.2061C117.705 47.7708 117.737 46.3356 117.697 44.9004C117.628 42.4575 115.926 41.3408 113.694 41.6622C111.877 41.9236 110.694 43.2581 110.61 45.0883C110.522 47.0001 110.59 48.9147 110.576 50.8266C110.571 51.4748 110.568 52.123 110.579 52.7711C110.582 52.9672 110.547 53.0571 110.322 53.0462C109.923 53.0272 109.522 53.0353 109.121 53.0434C108.981 53.0462 108.91 53.008 108.929 52.861C108.935 52.8119 108.929 52.7602 108.929 52.7112C108.929 47.071 108.931 41.4307 108.923 35.7905C108.923 35.5426 108.957 35.4337 109.241 35.4582C109.588 35.4882 109.942 35.4827 110.29 35.4582C110.541 35.4391 110.576 35.5372 110.576 35.7578C110.568 37.9202 110.571 40.0826 110.571 42.245C110.579 42.354 110.579 42.4629 110.579 42.5718Z" fill="#141820"/>
<path d="M78.1052 44.2255C78.1052 41.404 78.108 38.5852 78.0998 35.7637C78.0998 35.516 78.1545 35.4424 78.4058 35.4587C78.7856 35.4832 79.1653 35.4751 79.5479 35.4615C79.7282 35.456 79.791 35.4968 79.7855 35.6902C79.7719 36.1968 79.7801 36.706 79.7801 37.2153C79.7801 41.8698 79.7828 46.5241 79.7719 51.1784C79.7719 51.4534 79.8457 51.5134 80.1134 51.5134C82.8155 51.5025 85.5203 51.5079 88.2224 51.5079C88.6104 51.5079 88.6104 51.5079 88.6104 51.911C88.6104 52.1697 88.5831 52.4312 88.6159 52.6872C88.6568 53.0086 88.523 53.0576 88.2361 53.0521C87.1761 53.0358 86.1132 53.0467 85.0532 53.0467C82.862 53.0467 80.668 53.0385 78.4768 53.0549C78.149 53.0576 78.097 52.9568 78.0998 52.6627C78.108 49.8467 78.1052 47.0361 78.1052 44.2255Z" fill="#141820"/>
<path d="M122.745 46.2031C122.745 44.7978 122.74 43.3925 122.751 41.9872C122.753 41.7639 122.698 41.7012 122.472 41.7121C122.013 41.7312 121.551 41.7121 121.089 41.7203C120.914 41.7231 120.835 41.6903 120.846 41.4943C120.862 41.1866 120.859 40.876 120.846 40.5683C120.841 40.4104 120.893 40.3641 121.048 40.3668C121.538 40.3749 122.029 40.3586 122.521 40.3749C122.715 40.3803 122.748 40.3178 122.748 40.1408C122.74 39.2447 122.751 38.346 122.737 37.45C122.734 37.2348 122.797 37.1858 123.001 37.194C123.382 37.2103 123.764 37.2103 124.144 37.194C124.338 37.1858 124.373 37.2484 124.37 37.4281C124.362 38.3242 124.373 39.2229 124.36 40.1189C124.357 40.334 124.42 40.3803 124.625 40.3749C125.294 40.3613 125.966 40.3776 126.636 40.3641C126.835 40.3613 126.895 40.4185 126.881 40.6119C126.865 40.8787 126.862 41.1511 126.881 41.418C126.897 41.644 126.838 41.7285 126.592 41.7203C125.923 41.7012 125.251 41.7203 124.581 41.7094C124.417 41.7067 124.36 41.7448 124.362 41.9191C124.368 44.569 124.365 47.2217 124.368 49.8716C124.368 50.1194 124.395 50.3699 124.458 50.6096C124.633 51.2714 125.049 51.6254 125.734 51.6663C126.073 51.6854 126.414 51.6717 126.753 51.6582C126.895 51.6527 126.947 51.6854 126.942 51.8352C126.931 52.1728 126.936 52.5133 126.939 52.851C126.939 52.9572 126.939 53.0362 126.791 53.0498C126.103 53.1152 125.411 53.1533 124.729 53.0199C123.579 52.7938 122.961 52.0939 122.805 50.8847C122.762 50.5497 122.74 50.212 122.74 49.8716C122.748 48.6542 122.745 47.4287 122.745 46.2031Z" fill="#141820"/>
<path d="M90.7893 46.6819C90.7893 44.6693 90.7921 42.6566 90.7839 40.6413C90.7839 40.4208 90.8335 40.3499 91.0626 40.3608C91.4315 40.3827 91.803 40.3772 92.1746 40.3608C92.382 40.3526 92.4452 40.4071 92.4425 40.6195C92.4316 41.7253 92.4371 42.831 92.4371 43.9394C92.4371 46.8699 92.4344 49.8003 92.4425 52.7306C92.4425 52.9758 92.3875 53.0602 92.134 53.0466C91.776 53.0248 91.4125 53.0276 91.0518 53.0466C90.8417 53.0575 90.7839 52.9922 90.7839 52.7824C90.7921 50.748 90.7893 48.7136 90.7893 46.6819Z" fill="#141820"/>
<path d="M92.705 36.7355C92.7077 37.3375 92.2378 37.814 91.6345 37.8277C91.041 37.8386 90.5414 37.3564 90.536 36.7627C90.5279 36.1663 91.0086 35.6788 91.6092 35.6761C92.2162 35.6679 92.7023 36.1391 92.705 36.7355Z" fill="#141820"/>
</g>
<defs>
<clipPath id="clip0_1_150">
<rect width="193" height="89" fill="white"/>
</clipPath>
</defs>
</svg>
