<svg width="46" height="41" viewBox="0 0 46 41" fill="none" xmlns="http://www.w3.org/2000/svg">
<path d="M26.4369 7.9175C21.0163 8.6142 9.5936 5.61559 8.89689 0.19478L8.81662 0.205101C9.3742 4.54366 11.6325 8.483 15.0945 11.1566C18.5566 13.8302 22.9389 15.019 27.2775 14.4616C29.8806 14.127 32.5101 14.8402 34.5875 16.4443C36.6649 18.0484 38.0198 20.4121 38.3544 23.0152C38.6896 25.6182 37.9768 28.2481 36.3731 30.3256C34.7693 32.4034 32.4059 33.7587 29.8029 34.0939C27.1996 34.4289 24.57 33.7161 22.4923 32.1124C20.4147 30.5086 19.0592 28.1452 18.7241 25.5422C18.448 23.3938 17.7514 21.321 16.6741 19.4419C15.5968 17.5629 14.16 15.9143 12.4456 14.5906C10.7312 13.2668 8.77295 12.2936 6.68248 11.7267C4.59203 11.1597 2.41036 11.0101 0.26207 11.2863L0.2723 11.3659C5.69209 10.6693 11.4812 20.9578 12.1801 26.3791L12.179 26.3792C12.5949 29.6148 13.9608 32.6543 16.104 35.1135C18.2473 37.5727 21.0716 39.3412 24.2199 40.1952C27.3683 41.0493 30.6991 40.9507 33.7914 39.9116C36.8836 38.8727 39.5983 36.9401 41.5923 34.3584C43.586 31.7765 44.7696 28.6615 44.9932 25.4069C45.2168 22.1525 44.4701 18.905 42.848 16.0748C41.2258 13.2446 38.8008 10.9591 35.8797 9.5071C32.9584 8.0551 29.6723 7.502 26.4369 7.9175Z" fill="url(#paint0_linear_1_61)"/>
<defs>
<linearGradient id="paint0_linear_1_61" x1="15.303" y1="5.70575" x2="48.2901" y2="43.6409" gradientUnits="userSpaceOnUse">
<stop stop-color="#57B8FF"/>
<stop offset="0.940625" stop-color="#038EF2"/>
<stop offset="1" stop-color="white" stop-opacity="0"/>
</linearGradient>
</defs>
</svg>
