<?xml version="1.0" standalone="no"?>
<!DOCTYPE svg PUBLIC "-//W3C//DTD SVG 20010904//EN"
 "http://www.w3.org/TR/2001/REC-SVG-20010904/DTD/svg10.dtd">
<svg version="1.0" xmlns="http://www.w3.org/2000/svg"
 width="736.000000pt" height="736.000000pt" viewBox="0 0 736.000000 736.000000"
 preserveAspectRatio="xMidYMid meet">
<metadata>
Created by potrace 1.14, written by Peter Selinger 2001-2017
</metadata>
<g transform="translate(0.000000,736.000000) scale(0.100000,-0.100000)"
fill="#000000" stroke="none">
<path d="M1414 6900 c3 -19 7 -46 10 -60 2 -14 7 -41 10 -60 7 -39 38 -173 56
-235 6 -22 12 -44 13 -50 7 -23 29 -92 37 -110 4 -11 25 -63 45 -115 33 -84
151 -327 165 -340 3 -3 23 -34 44 -70 22 -36 66 -100 98 -143 32 -43 58 -82
58 -87 0 -4 4 -10 8 -12 5 -1 39 -39 77 -83 75 -87 190 -202 270 -270 68 -58
271 -210 304 -226 14 -8 44 -26 66 -41 44 -29 225 -122 290 -150 125 -52 266
-104 305 -113 8 -2 61 -15 116 -29 111 -29 108 -29 209 -45 135 -23 267 -33
415 -34 114 -1 300 9 340 18 42 10 321 13 385 5 125 -17 151 -22 205 -36 30
-8 63 -17 73 -19 45 -10 150 -51 236 -92 93 -45 233 -129 239 -145 2 -4 10 -8
17 -8 7 0 15 -3 17 -7 2 -5 26 -26 53 -48 89 -71 285 -284 285 -309 0 -4 6
-14 13 -21 22 -26 32 -40 47 -70 8 -16 18 -32 21 -35 9 -7 99 -199 103 -220 1
-3 4 -9 7 -15 21 -34 77 -262 86 -350 8 -69 8 -350 0 -405 -16 -116 -69 -321
-89 -344 -4 -6 -8 -16 -8 -24 0 -25 -91 -203 -154 -301 -35 -55 -31 -50 -113
-146 -106 -125 -195 -205 -324 -293 -81 -54 -226 -132 -246 -132 -7 0 -13 -3
-13 -8 0 -6 -49 -26 -93 -37 -9 -2 -22 -7 -28 -11 -12 -7 -42 -15 -144 -40
-160 -38 -356 -49 -535 -31 -148 15 -328 63 -454 121 -31 14 -61 26 -66 26 -6
0 -10 4 -10 8 0 4 -15 13 -34 20 -29 11 -200 119 -237 150 -133 114 -248 234
-299 312 -8 12 -21 28 -27 36 -7 7 -13 15 -13 18 0 3 -13 25 -30 49 -17 25
-30 50 -30 56 0 6 -4 11 -10 11 -5 0 -10 8 -10 17 0 9 -6 24 -13 32 -25 30
-118 275 -132 347 -2 11 -4 21 -5 24 -1 3 -2 8 -1 13 1 4 -4 28 -10 55 -6 26
-13 65 -15 87 -4 34 -19 122 -40 228 -3 16 -19 75 -35 130 -16 56 -31 109 -33
117 -10 36 -61 170 -84 220 -14 30 -26 57 -27 60 -1 10 -107 215 -113 220 -4
3 -16 21 -26 40 -11 19 -36 59 -55 89 -20 29 -40 61 -46 70 -5 9 -12 18 -15
21 -3 3 -25 32 -50 65 -24 33 -58 75 -75 94 -119 135 -207 223 -325 323 -52
45 -246 188 -254 188 -3 0 -32 18 -65 40 -33 22 -62 40 -65 40 -2 0 -33 16
-68 36 -34 20 -67 37 -73 39 -5 1 -50 21 -98 43 -49 23 -95 42 -101 42 -7 0
-16 3 -20 8 -4 4 -11 7 -14 8 -4 0 -19 6 -34 12 -24 10 -189 63 -213 68 -5 1
-21 4 -35 7 -14 3 -32 8 -40 11 -8 3 -28 8 -45 11 -61 12 -191 34 -229 40
-126 18 -391 24 -555 12 -112 -9 -159 -27 -56 -22 83 4 200 -15 290 -48 227
-82 482 -284 715 -567 25 -30 49 -60 55 -66 5 -6 17 -22 25 -34 8 -12 20 -28
25 -34 46 -53 221 -323 288 -446 99 -179 223 -441 268 -568 11 -31 24 -66 29
-77 4 -11 18 -49 30 -85 12 -36 25 -72 28 -80 3 -8 7 -24 9 -35 2 -11 7 -31
13 -45 9 -24 38 -143 46 -185 1 -11 8 -47 14 -80 6 -33 13 -73 14 -90 8 -71
31 -186 56 -280 6 -22 12 -49 14 -60 6 -28 65 -204 82 -242 8 -17 14 -33 14
-36 0 -3 14 -36 32 -74 17 -37 32 -70 33 -73 5 -16 32 -70 52 -102 13 -21 23
-44 23 -53 0 -8 5 -15 10 -15 6 0 15 -11 20 -25 8 -22 96 -163 110 -175 3 -3
20 -27 39 -55 39 -56 32 -48 138 -170 130 -150 241 -254 391 -366 59 -44 114
-86 123 -94 9 -8 19 -15 22 -15 4 0 30 -15 59 -34 83 -52 219 -126 234 -126 8
0 14 -4 14 -9 0 -5 8 -11 18 -14 9 -3 73 -28 141 -56 68 -29 131 -53 140 -55
9 -2 23 -6 31 -9 28 -11 117 -38 136 -41 10 -2 39 -9 64 -16 50 -13 60 -16
115 -24 20 -4 40 -8 44 -10 3 -2 31 -7 61 -10 30 -4 71 -8 90 -11 118 -16 378
-22 505 -11 479 41 919 197 1301 461 38 27 81 58 96 69 14 12 37 29 50 39 83
64 255 228 347 332 42 48 193 249 218 290 95 158 223 397 223 418 0 3 8 22 17
43 9 22 17 41 18 44 0 3 9 30 20 60 10 30 20 60 21 65 1 6 12 39 24 75 12 36
23 74 24 85 2 11 8 38 14 60 6 22 13 58 17 80 3 22 8 48 11 57 3 9 6 32 8 50
2 18 6 53 10 78 15 110 18 154 19 290 1 168 -8 300 -27 420 -4 25 -10 59 -12
75 -5 39 -32 161 -45 205 -6 19 -12 42 -13 50 -2 8 -5 22 -8 30 -3 8 -11 33
-17 55 -16 51 -59 170 -79 215 -35 82 -133 279 -156 312 -13 20 -22 39 -18 42
3 3 0 6 -6 6 -7 0 -12 6 -12 13 0 7 -8 22 -17 33 -10 10 -24 31 -31 45 -8 15
-25 38 -38 52 -13 14 -24 30 -24 35 0 4 -8 17 -17 28 -10 10 -36 42 -58 69
-116 145 -300 326 -456 448 -157 123 -451 288 -634 356 -33 13 -69 27 -80 31
-70 29 -279 87 -380 104 -16 3 -41 8 -55 11 -35 8 -117 18 -245 31 -129 13
-365 8 -515 -11 -74 -9 -219 -17 -300 -17 -99 0 -309 11 -342 17 -12 3 -52 7
-88 11 -36 3 -74 8 -85 11 -11 2 -34 6 -52 8 -71 8 -391 75 -453 95 -14 4 -63
18 -110 31 -47 12 -90 26 -95 30 -6 4 -22 10 -35 12 -14 2 -32 7 -40 10 -8 3
-42 15 -75 26 -33 12 -69 25 -80 30 -11 5 -54 22 -95 39 -84 34 -272 122 -280
131 -3 3 -21 14 -40 23 -39 20 -46 24 -145 88 -38 25 -72 48 -75 51 -3 3 -12
10 -21 15 -26 15 -118 95 -175 154 -114 116 -194 247 -228 370 -24 87 -37 116
-32 70z"/>
</g>
</svg>
