<svg width="25" height="50" viewBox="0 0 25 50" fill="none" xmlns="http://www.w3.org/2000/svg">
<path d="M0.00844683 25.0392C0.00681792 25.8722 0.297292 26.6795 0.82945 27.3209L18.6774 48.7121C19.2833 49.4401 20.1539 49.898 21.0978 49.9849C22.0417 50.0718 22.9815 49.7807 23.7105 49.1755C24.4394 48.5704 24.8979 47.7008 24.9849 46.7581C25.0719 45.8153 24.7804 44.8767 24.1745 44.1486L8.18279 25.0392L23.6034 5.9298C23.8999 5.56512 24.1213 5.14552 24.2549 4.69509C24.3886 4.24467 24.4317 3.77232 24.382 3.30517C24.3322 2.83803 24.1905 2.38531 23.965 1.97305C23.7395 1.56078 23.4346 1.19709 23.068 0.902882C22.7009 0.576385 22.2703 0.329105 21.8032 0.17654C21.336 0.023979 20.8423 -0.0305788 20.3531 0.0162771C19.8638 0.0631368 19.3895 0.210399 18.9599 0.448848C18.5303 0.687301 18.1546 1.0118 17.8564 1.40202L0.615278 22.7931C0.167237 23.453 -0.0464199 24.2438 0.00844683 25.0392Z" fill="white"/>
</svg>
