<svg width="25" height="50" viewBox="0 0 25 50" fill="none" xmlns="http://www.w3.org/2000/svg">
<path d="M24.9916 25.0392C24.9932 25.8722 24.7027 26.6795 24.1706 27.3209L6.32263 48.7121C5.71674 49.4401 4.84607 49.898 3.90218 49.9849C2.95829 50.0718 2.01849 49.7807 1.28952 49.1755C0.56055 48.5704 0.10213 47.7008 0.0151046 46.7581C-0.0719209 45.8153 0.219576 44.8767 0.825472 44.1486L16.8172 25.0392L1.39661 5.9298C1.1001 5.56512 0.878668 5.14552 0.745053 4.69509C0.611437 4.24467 0.568267 3.77232 0.618024 3.30517C0.667781 2.83803 0.809482 2.38531 1.03499 1.97305C1.26049 1.56078 1.56535 1.19709 1.93204 0.902882C2.29907 0.576385 2.72966 0.329105 3.19682 0.17654C3.66399 0.023979 4.15766 -0.0305788 4.64692 0.0162771C5.13618 0.0631368 5.61048 0.210399 6.0401 0.448848C6.46973 0.687301 6.84542 1.0118 7.14363 1.40202L24.3847 22.7931C24.8328 23.453 25.0464 24.2438 24.9916 25.0392Z" fill="white"/>
</svg>
